<svg width="215" height="40" viewBox="0 0 215 40" fill="none" xmlns="http://www.w3.org/2000/svg">
<g clip-path="url(#clip0_3_129323)">
<path d="M70.8092 6.31387C70.8092 6.09489 70.903 5.87591 71.0595 5.7195C71.2159 5.56309 71.4349 5.46924 71.7164 5.46924H75.6893C76.2211 5.46924 76.5026 5.75078 76.5339 6.31387V29.1502H87.9521C88.171 29.1502 88.39 29.244 88.5464 29.4004C88.7028 29.5568 88.7967 29.7758 88.7967 30.0574V33.6236C88.7967 34.1554 88.5151 34.4369 87.9521 34.4682H71.6538C71.0907 34.4682 70.8092 34.1867 70.8092 33.6236V6.31387V6.31387ZM90.2983 20.0156C90.2983 18.6392 90.486 17.3253 90.8301 16.0428C91.1742 14.7602 91.6747 13.5714 92.3316 12.4765C92.9886 11.3504 93.7706 10.3493 94.6778 9.44213C95.585 8.53493 96.5861 7.75287 97.6809 7.09593C98.7758 6.439 99.9646 5.93848 101.247 5.59437C102.53 5.25026 103.844 5.06257 105.22 5.06257C106.596 5.06257 107.91 5.25026 109.193 5.59437C110.476 5.93848 111.664 6.439 112.759 7.09593C113.854 7.75287 114.886 8.50365 115.794 9.44213C117.629 11.2699 118.955 13.5451 119.641 16.0428C119.985 17.3253 120.173 18.6392 120.173 20.0156C120.173 21.3921 119.985 22.7059 119.641 23.9885C119.297 25.2711 118.797 26.4286 118.14 27.5235C117.483 28.6184 116.732 29.6194 115.794 30.5266C114.886 31.4338 113.885 32.2159 112.759 32.8728C111.664 33.5297 110.476 34.0302 109.193 34.3744C107.91 34.7185 106.596 34.9062 105.22 34.9062C103.844 34.9062 102.53 34.7185 101.247 34.3744C99.9646 34.0302 98.8071 33.5297 97.6809 32.8728C96.5861 32.2159 95.585 31.4338 94.6778 30.5266C93.7706 29.6194 92.9886 28.6184 92.3316 27.5235C91.6747 26.4286 91.1742 25.2398 90.8301 23.9885C90.4547 22.7372 90.2983 21.3921 90.2983 20.0156V20.0156ZM96.0855 20.0156C96.0855 21.3295 96.3045 22.5495 96.7738 23.707C97.243 24.8644 97.8374 25.8655 98.6507 26.7101C99.4641 27.5547 100.403 28.243 101.529 28.7435C102.624 29.244 103.844 29.4943 105.189 29.4943C106.503 29.4943 107.723 29.244 108.818 28.7435C109.944 28.243 110.882 27.586 111.696 26.7101C112.509 25.8655 113.135 24.8332 113.572 23.707C114.042 22.5495 114.261 21.3295 114.261 20.0156C114.261 18.7018 114.042 17.4505 113.572 16.293C113.103 15.1356 112.478 14.1345 111.696 13.2586C110.882 12.414 109.944 11.7258 108.818 11.2252C107.691 10.7247 106.503 10.4745 105.189 10.4745C103.875 10.4745 102.655 10.7247 101.529 11.2252C100.434 11.7258 99.4641 12.414 98.6507 13.2586C97.8374 14.1032 97.2117 15.1356 96.7738 16.293C96.3045 17.4505 96.0855 18.7018 96.0855 20.0156V20.0156ZM129.401 23.0188C129.401 23.926 129.558 24.8019 129.839 25.5839C130.152 26.3973 130.559 27.0855 131.122 27.7112C131.654 28.3055 132.311 28.806 133.093 29.1502C133.844 29.4943 134.688 29.682 135.595 29.682C136.503 29.682 137.347 29.4943 138.098 29.1502C138.849 28.806 139.506 28.3055 140.038 27.7112C140.569 27.1168 141.007 26.3973 141.32 25.5839C141.633 24.7706 141.758 23.926 141.758 23.0188V6.37643C141.758 6.15746 141.852 5.93848 142.008 5.78206C142.196 5.62565 142.415 5.5318 142.665 5.5318H146.513C146.732 5.5318 146.982 5.59437 147.17 5.75078C147.389 5.9072 147.483 6.12617 147.483 6.37643V23.0501C147.483 24.6767 147.17 26.2409 146.544 27.6799C145.919 29.1189 145.074 30.4015 143.979 31.4651C142.884 32.56 141.633 33.4046 140.194 34.0302C138.755 34.6559 137.222 34.9687 135.564 34.9687C134.469 34.9687 133.406 34.8123 132.405 34.5308C131.404 34.2492 130.434 33.8425 129.558 33.3107C128.682 32.7789 127.869 32.1846 127.149 31.4338C126.43 30.683 125.804 29.9009 125.272 29.025C124.74 28.1491 124.334 27.1794 124.052 26.1783C123.771 25.1773 123.614 24.1137 123.614 23.0188V6.37643C123.614 6.18874 123.677 6.00104 123.833 5.81335C123.99 5.62565 124.177 5.5318 124.428 5.5318H128.494C128.682 5.5318 128.87 5.62565 129.089 5.78206C129.308 5.93848 129.401 6.15746 129.401 6.37643V23.0188ZM177.514 20.0156C177.514 21.3921 177.326 22.7059 176.982 23.9572C176.638 25.2086 176.138 26.366 175.481 27.4296C174.824 28.4932 174.042 29.463 173.135 30.3389C172.227 31.2148 171.226 31.9656 170.131 32.56C169.037 33.1856 167.848 33.6549 166.565 33.9677C165.283 34.3118 163.969 34.4682 162.592 34.4682H153.614C153.52 34.4682 153.395 34.4682 153.301 34.4369C153.208 34.4369 153.082 34.4056 152.989 34.3431C152.895 34.2805 152.801 34.2179 152.77 34.1241C152.707 34.0302 152.676 33.8738 152.676 33.6861V6.439C152.676 5.78206 152.989 5.46924 153.614 5.46924H162.592C163.969 5.46924 165.283 5.65693 166.534 6.00104C167.817 6.34515 168.974 6.81439 170.069 7.44004C171.164 8.06569 172.165 8.81648 173.072 9.69239C173.979 10.5683 174.761 11.5381 175.418 12.633C176.075 13.7278 176.576 14.8853 176.92 16.1366C177.326 17.3566 177.514 18.6392 177.514 20.0156V20.0156ZM158.494 10.756V29.1502H162.217C163.531 29.1502 164.751 28.9312 165.908 28.4619C167.066 28.024 168.067 27.3983 168.911 26.585C169.756 25.7716 170.444 24.8019 170.945 23.707C171.445 22.5808 171.696 21.3608 171.696 20.0156C171.696 18.6705 171.445 17.4505 170.945 16.3243C170.444 15.1981 169.756 14.2284 168.911 13.3837C168.067 12.5704 167.034 11.9135 165.908 11.4755C164.751 11.0063 163.531 10.7873 162.217 10.756H158.494V10.756ZM197.003 13.2273C196.847 13.2273 196.69 13.196 196.534 13.1022C196.378 13.0083 196.221 12.9145 196.033 12.7581L196.002 12.7268C195.752 12.4765 195.439 12.195 195.032 11.9135C194.657 11.6006 194.219 11.3504 193.718 11.0688C193.249 10.8186 192.717 10.5996 192.154 10.4119C191.591 10.2242 191.028 10.1303 190.465 10.1303C189.746 10.1303 189.089 10.2242 188.526 10.3806C187.962 10.537 187.493 10.756 187.118 11.0375C186.742 11.3191 186.461 11.6319 186.273 12.0073C186.086 12.3827 185.992 12.7894 185.992 13.2273C185.992 13.6966 186.148 14.1032 186.43 14.4473C186.711 14.7915 187.118 15.1043 187.618 15.3858C188.119 15.6674 188.682 15.9176 189.339 16.1366C189.996 16.3556 190.684 16.5746 191.372 16.7935C192.592 17.1689 193.812 17.5756 195.001 18.0448C196.19 18.5141 197.253 19.0772 198.192 19.7341C199.13 20.391 199.881 21.2044 200.476 22.1116C201.039 23.0501 201.351 24.1762 201.351 25.4901C201.351 26.8978 201.07 28.1804 200.507 29.3379C199.944 30.4953 199.13 31.4651 198.129 32.2784C197.128 33.0918 195.94 33.7174 194.594 34.1554C193.249 34.5933 191.779 34.8123 190.215 34.8123C189.214 34.8123 188.213 34.6872 187.243 34.4682C186.242 34.2492 185.303 33.9051 184.396 33.4672C183.489 33.0292 182.613 32.5287 181.8 31.903C180.986 31.3087 180.267 30.6204 179.61 29.8697V29.9009L179.579 29.8384C179.297 29.5256 179.141 29.2127 179.141 28.9312C179.141 28.6809 179.297 28.3994 179.61 28.0866L179.892 27.805L180.267 27.4609C180.455 27.3045 180.674 27.1168 180.893 26.8978C181.112 26.6788 181.331 26.4911 181.55 26.3347C181.769 26.1783 181.988 26.0219 182.175 25.8968C182.363 25.7716 182.519 25.7091 182.644 25.7091C182.832 25.7091 182.989 25.7716 183.145 25.8968C183.301 26.0219 183.427 26.1157 183.52 26.2409L183.583 26.3034H183.552C184.021 26.7414 184.521 27.1481 185.084 27.5235C185.648 27.8989 186.242 28.2742 186.836 28.5558C187.431 28.8686 188.025 29.0876 188.619 29.2753C189.214 29.463 189.777 29.5256 190.277 29.5256C190.997 29.5256 191.654 29.4317 192.279 29.244C192.905 29.0563 193.437 28.8061 193.906 28.4619C194.375 28.1178 194.72 27.7424 194.97 27.2732C195.22 26.804 195.345 26.2722 195.345 25.7091C195.345 25.146 195.189 24.6455 194.845 24.2388C194.501 23.8321 194.063 23.4567 193.531 23.1752C192.999 22.8624 192.373 22.6121 191.685 22.3931C190.997 22.1741 190.309 21.9552 189.62 21.7675C188.025 21.2982 186.649 20.7664 185.46 20.2033C184.271 19.6403 183.27 19.0146 182.488 18.3264C181.706 17.6382 181.112 16.8561 180.705 15.9802C180.298 15.1043 180.111 14.1345 180.111 13.0709C180.111 11.8509 180.361 10.756 180.83 9.75495C181.331 8.75391 182.019 7.90928 182.895 7.18978C183.802 6.47028 184.866 5.93848 186.148 5.5318C187.462 5.1877 188.87 5 190.434 5C191.623 5 192.811 5.1877 194.031 5.56309C195.251 5.93848 196.378 6.439 197.441 7.09593C197.754 7.28363 198.067 7.50261 198.411 7.75287C198.724 8.00313 199.037 8.25339 199.318 8.50365C199.6 8.75391 199.819 9.00417 200.006 9.25443C200.194 9.50469 200.257 9.69239 200.257 9.88008C200.257 10.0365 200.225 10.2242 200.131 10.3493C200.069 10.5057 199.944 10.6309 199.85 10.7873L199.256 11.4129V11.3816C199.068 11.6006 198.849 11.8196 198.661 12.0386C198.442 12.2576 198.254 12.4453 198.035 12.633C197.816 12.8206 197.629 12.9458 197.472 13.0709C197.253 13.1648 197.097 13.2273 197.003 13.2273V13.2273Z" fill="white"/>
<path d="M39.5892 5.28154C33.7706 5.28154 28.7654 8.59749 26.3253 13.4463V6.37643C26.3253 6.12617 26.2315 5.90719 26.0438 5.75078C25.8561 5.59437 25.6371 5.5318 25.3869 5.5318H20.5693C20.0688 5.5318 19.6309 5.56308 19.318 5.59437C19.0052 5.62565 18.6611 5.75078 18.317 5.96976L14.8446 8.06569C14.2815 8.37852 14 8.78519 14 9.28571V14.6976C14 14.9479 14.0626 15.1668 14.219 15.3545C14.3441 15.5422 14.5318 15.6361 14.7821 15.6361C14.7821 15.6361 15.001 15.6048 15.1262 15.5422L18.5985 13.415V33.7487C18.5985 33.9364 18.6611 34.1241 18.7862 34.3118C18.9114 34.4995 19.1303 34.562 19.4745 34.562H25.4181C26.0438 34.562 26.3253 34.2805 26.3253 33.7174V26.804C28.7654 31.6528 33.8019 35 39.5892 35C47.7852 35 54.4484 28.3368 54.4484 20.1408C54.4484 11.9134 47.7852 5.28154 39.5892 5.28154Z" fill="#5E20E5"/>
<path d="M51.1637 26.804C50.3504 25.9593 49.7247 24.927 49.2868 23.8008C48.8488 22.6434 48.5986 21.4234 48.5986 20.1095C48.5986 18.7956 48.8175 17.5443 49.2868 16.3869C49.7247 15.2294 50.3504 14.2284 51.1637 13.3524C51.5078 12.9771 51.8832 12.6642 52.2586 12.3827C51.2889 10.8186 50.0376 9.41084 48.5673 8.31595C48.0668 8.69134 47.6288 9.09801 47.1908 9.53597C45.3556 11.3637 44.0293 13.639 43.3431 16.1366C42.999 17.4192 42.8113 18.733 42.8113 20.1095C42.8113 21.4859 42.999 22.7998 43.3431 24.0824C43.6872 25.365 44.1877 26.5224 44.8446 27.6173C45.5016 28.7122 46.2836 29.7132 47.1908 30.6204C47.6601 31.0897 48.1606 31.5276 48.6611 31.903C50.1314 30.7768 51.3514 29.4004 52.3212 27.805C51.9145 27.5235 51.5078 27.1793 51.1637 26.804V26.804Z" fill="#1BFEC0"/>
<path d="M52.2586 12.3827C52.7904 11.976 53.3848 11.6006 54.0417 11.3191C55.1366 10.8186 56.3566 10.5683 57.7018 10.5683C58.7654 10.5683 59.7664 10.7247 60.7049 11.0688C61.6434 11.3816 62.5193 11.8509 63.3326 12.4453C63.6142 12.6017 63.8332 12.6642 64.0209 12.633C64.2086 12.6017 64.3963 12.4453 64.6152 12.195L66.4922 8.97289C66.6486 8.69135 66.6486 8.44109 66.5547 8.22211C66.4609 8.00313 66.2732 7.84672 66.0542 7.72159C64.8342 6.90824 63.5203 6.28259 62.1439 5.84463C60.7675 5.40668 59.2972 5.1877 57.7331 5.1877C56.3566 5.1877 55.0428 5.37539 53.7602 5.7195C52.4776 6.06361 51.2888 6.56413 50.194 7.18978C49.6309 7.53389 49.0991 7.878 48.5673 8.28467C50.0375 9.41085 51.2888 10.7873 52.2586 12.3827ZM66.5547 31.1835L64.6152 27.9301C64.4275 27.6799 64.2398 27.5235 64.0521 27.4922C63.8644 27.4609 63.6142 27.5235 63.3326 27.7112C62.5506 28.3055 61.6747 28.7435 60.7049 29.0876C59.7351 29.4004 58.7341 29.5881 57.6705 29.5881C56.3566 29.5881 55.1366 29.3379 54.0104 28.8373C53.3848 28.5558 52.8217 28.2117 52.2899 27.8363C51.3201 29.4317 50.1001 30.8081 48.6298 31.9343C49.1303 32.3097 49.6309 32.6538 50.1627 32.9666C51.2576 33.6236 52.4463 34.1241 53.7289 34.4682C55.0115 34.8123 56.3253 35 57.7018 35C59.2346 35 60.7362 34.781 62.1439 34.3118C63.5829 33.8738 64.8968 33.2169 66.0855 32.4035C66.3045 32.2784 66.4609 32.122 66.586 31.903C66.7112 31.7153 66.6799 31.4964 66.5547 31.1835V31.1835Z" fill="white"/>
</g>
<defs>
<clipPath id="clip0_3_129323">
<rect width="187.351" height="30" fill="white" transform="translate(14 5)"/>
</clipPath>
</defs>
</svg>
