<?xml version="1.0" encoding="UTF-8" standalone="no"?>
<svg
   xmlns:dc="http://purl.org/dc/elements/1.1/"
   xmlns:cc="http://creativecommons.org/ns#"
   xmlns:rdf="http://www.w3.org/1999/02/22-rdf-syntax-ns#"
   xmlns:svg="http://www.w3.org/2000/svg"
   xmlns="http://www.w3.org/2000/svg"
   xmlns:sodipodi="http://sodipodi.sourceforge.net/DTD/sodipodi-0.dtd"
   xmlns:inkscape="http://www.inkscape.org/namespaces/inkscape"
   version="1.1"
   id="svg2"
   xml:space="preserve"
   width="4021.4133"
   height="1122.52"
   viewBox="0 0 4021.4133 1122.52"
   sodipodi:docname="beincrypto_logo.ai"><metadata
     id="metadata8"><rdf:RDF><cc:Work
         rdf:about=""><dc:format>image/svg+xml</dc:format><dc:type
           rdf:resource="http://purl.org/dc/dcmitype/StillImage" /></cc:Work></rdf:RDF></metadata><defs
     id="defs6"><clipPath
       clipPathUnits="userSpaceOnUse"
       id="clipPath18"><path
         d="m 1304.43,794 c -5.843,0 -10.891,-2.133 -15.139,-6.398 v 0 c -4.25,-4.266 -6.375,-9.331 -6.375,-15.196 v 0 -95.175 c 0,-5.865 2.125,-10.93 6.375,-15.196 v 0 c 4.248,-4.266 9.296,-6.398 15.139,-6.398 v 0 h 157.775 V 185.363 H 1304.43 c -5.843,0 -10.891,-2.133 -15.139,-6.398 v 0 c -4.25,-4.266 -6.375,-9.331 -6.375,-15.197 v 0 -95.174 c 0,-5.865 2.125,-10.93 6.375,-15.195 v 0 C 1293.539,49.133 1298.587,47 1304.43,47 v 0 h 292.441 c 5.844,0 10.89,2.133 15.14,6.399 v 0 c 4.249,4.265 6.374,9.33 6.374,15.195 v 0 703.812 c 0,5.865 -2.125,10.93 -6.374,15.196 v 0 c -4.25,4.265 -9.296,6.398 -15.14,6.398 v 0 z m -628.53,0 c -5.844,0 -10.89,-2.133 -15.14,-6.398 v 0 c -4.25,-4.266 -6.375,-9.331 -6.375,-15.196 v 0 -703.812 c 0,-5.865 2.125,-10.93 6.375,-15.195 v 0 C 665.01,49.133 670.056,47 675.9,47 v 0 h 292.441 c 5.843,0 10.89,2.133 15.139,6.399 v 0 c 4.25,4.265 6.375,9.33 6.375,15.195 v 0 95.174 c 0,5.866 -2.125,10.931 -6.375,15.197 v 0 c -4.249,4.265 -9.296,6.398 -15.139,6.398 v 0 H 810.566 v 470.274 h 157.775 c 5.843,0 10.89,2.132 15.139,6.398 v 0 c 4.25,4.266 6.375,9.331 6.375,15.196 v 0 95.175 c 0,5.865 -2.125,10.93 -6.375,15.196 v 0 c -4.249,4.265 -9.296,6.398 -15.139,6.398 v 0 z"
         id="path16" /></clipPath><clipPath
       clipPathUnits="userSpaceOnUse"
       id="clipPath28"><path
         d="m 1320.393,545 c -2.552,0 -4.756,-0.925 -6.611,-2.774 v 0 c -1.855,-1.851 -2.783,-4.047 -2.783,-6.59 v 0 -101.966 l -75.835,104.393 c -3.479,4.625 -8.001,6.937 -13.568,6.937 v 0 h -56.354 c -2.552,0 -4.755,-0.925 -6.611,-2.774 v 0 c -1.855,-1.851 -2.783,-4.047 -2.783,-6.59 v 0 -224.047 c 0,-2.543 0.928,-4.739 2.783,-6.589 v 0 c 1.856,-1.85 4.059,-2.776 6.611,-2.776 v 0 h 64.703 c 2.551,0 4.754,0.926 6.61,2.776 v 0 c 1.856,1.85 2.783,4.046 2.783,6.589 v 0 94.336 l 75.836,-96.417 c 3.71,-4.855 8.349,-7.284 13.915,-7.284 v 0 h 56.006 c 2.552,0 4.755,0.926 6.611,2.776 v 0 c 1.855,1.85 2.783,4.046 2.783,6.589 v 0 224.047 c 0,2.543 -0.928,4.739 -2.783,6.59 v 0 c -1.856,1.849 -4.059,2.774 -6.611,2.774 v 0 z m -438.937,0 c -2.552,0 -4.755,-0.925 -6.61,-2.774 v 0 c -1.856,-1.851 -2.783,-4.047 -2.783,-6.59 v 0 -52.37 c 0,-2.544 0.927,-4.741 2.783,-6.59 v 0 c 1.855,-1.849 4.058,-2.775 6.61,-2.775 v 0 h 63.66 V 373.324 h -63.66 c -2.552,0 -4.755,-0.926 -6.61,-2.775 v 0 c -1.856,-1.85 -2.783,-4.046 -2.783,-6.59 v 0 -52.37 c 0,-2.543 0.927,-4.739 2.783,-6.589 v 0 c 1.855,-1.85 4.058,-2.776 6.61,-2.776 v 0 h 220.55 c 2.551,0 4.755,0.926 6.609,2.776 v 0 c 1.856,1.85 2.783,4.046 2.783,6.589 v 0 52.37 c 0,2.544 -0.927,4.74 -2.783,6.59 v 0 c -1.854,1.849 -4.058,2.775 -6.609,2.775 v 0 h -62.965 v 100.577 h 62.965 c 2.551,0 4.755,0.926 6.609,2.775 v 0 c 1.856,1.849 2.783,4.046 2.783,6.59 v 0 52.37 c 0,2.543 -0.927,4.739 -2.783,6.59 v 0 c -1.854,1.849 -4.058,2.774 -6.609,2.774 v 0 z"
         id="path26" /></clipPath><clipPath
       clipPathUnits="userSpaceOnUse"
       id="clipPath38"><path
         d="m 2606.094,584 -70.017,-80.155 v -4.606 h 38.276 V 366.568 c 0,-31.785 10.27,-59.424 49.013,-59.424 v 0 c 21.006,0 39.211,4.145 60.217,13.818 v 0 30.405 c -21.473,-9.214 -42.479,-11.977 -53.215,-11.977 v 0 c -14.937,0 -21.006,7.37 -21.006,31.784 v 0 128.065 h 73.287 v 29.021 h -73.287 V 584 Z m 105.029,-164.455 c 0,-76.01 55.081,-117.008 117.632,-117.008 v 0 c 62.549,0 117.631,40.998 117.631,117.008 v 0 c 0,76.008 -55.082,117.007 -117.631,117.007 v 0 c -62.551,0 -117.632,-40.999 -117.632,-117.007 m 34.542,0 c 0,58.963 41.078,87.525 83.09,87.525 v 0 c 42.01,0 83.088,-28.562 83.088,-87.525 v 0 c 0,-58.964 -41.078,-87.525 -83.088,-87.525 v 0 c -42.012,0 -83.09,29.021 -83.09,87.525 m -408.441,82.919 v 25.796 h -34.543 V 221 h 34.543 v 99.503 c 18.205,-12.438 40.611,-17.966 68.618,-17.966 v 0 c 47.146,0 106.428,40.539 106.428,119.772 v 0 c 0,78.311 -51.813,114.243 -98.492,114.243 v 0 c -37.343,0 -66.752,-22.112 -76.554,-34.088 m 0,-150.637 v 118.39 c 16.337,19.809 41.077,33.628 66.752,33.628 v 0 c 32.207,0 72.818,-17.966 72.818,-81.536 v 0 c 0,-71.403 -46.678,-90.289 -75.619,-90.289 v 0 c -24.274,0 -48.547,7.37 -63.951,19.807 m -648.838,67.718 c 0,-80.155 60.682,-117.008 121.365,-117.008 v 0 c 22.406,0 41.077,2.764 62.55,9.674 v 0 33.628 c -21.473,-8.753 -44.812,-12.438 -62.55,-12.438 v 0 c -44.345,0 -85.422,32.246 -85.422,86.144 v 0 c 0,53.896 40.611,85.682 85.422,85.682 v 0 c 17.271,0 41.077,-3.685 62.55,-12.437 v 0 33.627 c -21.473,7.371 -40.611,10.135 -62.55,10.135 v 0 c -60.683,0 -121.365,-37.313 -121.365,-117.007 m 265.136,53.436 V 528.26 H 1918.98 V 310.829 h 34.542 v 89.368 c 0,55.28 25.674,96.739 86.357,96.739 v 0 38.694 c -42.011,-5.527 -66.751,-16.122 -86.357,-62.649 m 279.607,55.279 c -24.74,-57.583 -48.546,-115.165 -73.286,-172.747 v 0 L 2087.49,528.26 h -37.808 l 91.956,-214.668 C 2128.102,283.189 2115.031,251.864 2101.495,221 v 0 h 34.542 l 131.635,307.26 z"
         id="path36" /></clipPath><clipPath
       clipPathUnits="userSpaceOnUse"
       id="clipPath48"><path
         d="M 102.386,635.805 V 316.859 C 130.081,300.443 163.408,292 192.982,292 v 0 c 62.9,0 122.045,39.4 122.045,119.135 v 0 c 0,68.011 -43.186,119.137 -114.066,119.137 v 0 c -24.879,0 -44.124,-6.566 -63.839,-20.638 v 0 V 648 Z m 34.736,-300.654 v 140.243 c 16.429,15.947 39.899,22.514 67.125,22.514 v 0 c 30.982,0 75.105,-22.514 75.105,-87.71 v 0 c 0,-73.171 -53.512,-86.772 -87.779,-86.772 v 0 c -15.491,0 -39.9,4.691 -54.451,11.725 m 209.355,75.984 C 346.477,329.992 402.337,292 465.708,292 v 0 c 36.144,0 63.37,7.974 85.901,17.823 v 0 34.71 c -24.879,-15.01 -58.675,-21.577 -83.085,-21.577 v 0 c -47.879,0 -85.902,27.205 -85.902,87.242 v 0 h 187.764 c 0,72.232 -45.064,120.074 -104.678,120.074 v 0 c -63.371,0 -119.231,-37.993 -119.231,-119.137 m 117.353,89.587 c 42.246,0 68.064,-27.673 70.411,-64.258 v 0 h -150.21 c 7.509,46.435 47.879,64.258 79.799,64.258"
         id="path46" /></clipPath></defs><sodipodi:namedview
     pagecolor="#ffffff"
     bordercolor="#666666"
     borderopacity="1"
     objecttolerance="10"
     gridtolerance="10"
     guidetolerance="10"
     inkscape:pageopacity="0"
     inkscape:pageshadow="2"
     inkscape:window-width="640"
     inkscape:window-height="480"
     id="namedview4" /><g
     id="g10"
     inkscape:groupmode="layer"
     inkscape:label="beincrypto_logo"
     transform="matrix(1.3333333,0,0,-1.3333333,0,1122.52)"><g
       id="g12"><g
         id="g14"
         clip-path="url(#clipPath18)"><path
           d="m 649.386,799 h 974 V 42 h -974 z"
           style="fill:#000000;fill-opacity:1;fill-rule:nonzero;stroke:none"
           id="path20" /></g></g><g
       id="g22"><g
         id="g24"
         clip-path="url(#clipPath28)"><path
           d="m 867.063,550 h 532.426 V 297.225 H 867.063 Z"
           style="fill:#000000;fill-opacity:1;fill-rule:nonzero;stroke:none"
           id="path30" /></g></g><g
       id="g32"><g
         id="g34"
         clip-path="url(#clipPath38)"><path
           d="m 1683.385,589 h 1268 V 216 h -1268 z"
           style="fill:#000000;fill-opacity:1;fill-rule:nonzero;stroke:none"
           id="path40" /></g></g><g
       id="g42"><g
         id="g44"
         clip-path="url(#clipPath48)"><path
           d="m 97.386,653 h 478 V 287 h -478 z"
           style="fill:#000000;fill-opacity:1;fill-rule:nonzero;stroke:none"
           id="path50" /></g></g></g></svg>
