<?xml version="1.0" encoding="utf-8"?>
<!-- Generator: Adobe Illustrator 23.0.1, SVG Export Plug-In . SVG Version: 6.00 Build 0)  -->
<svg version="1.1" id="Layer_1" xmlns="http://www.w3.org/2000/svg" xmlns:xlink="http://www.w3.org/1999/xlink" x="0px" y="0px"
	 viewBox="0 0 480 160" style="enable-background:new 0 0 480 160;" xml:space="preserve">
<style type="text/css">
	.st0{fill:#151011;}
	.st1{fill:url(#SVGID_1_);}
	.st2{fill:url(#SVGID_2_);}
	.st3{fill:url(#SVGID_3_);}
	.st4{fill:url(#SVGID_4_);}
	.st5{fill:url(#SVGID_5_);}
	.st6{fill:url(#SVGID_6_);}
	.st7{fill:url(#SVGID_7_);}
	.st8{fill:url(#SVGID_8_);}
	.st9{fill:url(#SVGID_9_);}
	.st10{fill:url(#SVGID_10_);}
	.st11{fill:url(#SVGID_11_);}
</style>
<g>
	<g>
		<g>
			<path class="st0" d="M162.2,88c1.2,0,2.1-0.3,2.7-1c0.6-0.7,0.9-1.6,0.9-2.9h8.2l0.1,0.2c0.1,3.1-1,5.7-3.2,7.6
				c-2.2,2-5.1,3-8.5,3c-4.3,0-7.7-1.4-10-4.1c-2.4-2.7-3.5-6.2-3.5-10.5v-0.6c0-4.3,1.2-7.8,3.5-10.5c2.3-2.7,5.7-4.1,10-4.1
				c3.6,0,6.5,1,8.7,3c2.2,2,3.2,4.8,3.2,8.3l-0.1,0.2h-8.2c0-1.4-0.3-2.5-0.9-3.3c-0.6-0.9-1.5-1.3-2.7-1.3c-1.7,0-2.9,0.7-3.6,2.1
				c-0.7,1.4-1,3.3-1,5.6v0.6c0,2.4,0.3,4.3,1,5.6C159.3,87.3,160.5,88,162.2,88z"/>
			<path class="st0" d="M193.9,73.6l-3.3,0c-1,0-1.9,0.2-2.5,0.5c-0.7,0.3-1.1,0.8-1.5,1.5v18.8h-9V65.7h8.4l0.3,4.2
				c0.6-1.5,1.4-2.7,2.4-3.5c1-0.8,2.1-1.2,3.5-1.2c0.4,0,0.9,0,1.3,0.1c0.4,0.1,0.8,0.1,1.2,0.2L193.9,73.6z"/>
			<path class="st0" d="M210.9,81.7l0,0.2h0.2l4.7-16.2h9.5l-11.4,32.9c-0.9,2.1-2,3.9-3.4,5.2c-1.4,1.4-3.6,2.1-6.6,2.1
				c-0.8,0-1.4,0-1.9-0.1c-0.5-0.1-1.3-0.3-2.3-0.5l1.1-6.4c0.2,0.1,0.4,0.1,0.6,0.1c0.1,0,0.3,0,0.5,0c1.4,0,2.4-0.2,3.1-0.6
				c0.7-0.4,1.1-1,1.5-1.9l0.7-1.9l-9.9-29h9.5L210.9,81.7z"/>
			<path class="st0" d="M254.2,80.6c0,4.3-1,7.8-2.9,10.4c-1.9,2.6-4.7,3.9-8.2,3.9c-1.4,0-2.6-0.3-3.7-0.8s-2-1.3-2.8-2.3v13.6h-9
				V65.7h8.4l0.3,3.2c0.8-1.2,1.8-2.1,2.9-2.7c1.1-0.6,2.4-1,3.8-1c3.5,0,6.3,1.4,8.2,4.1c2,2.7,2.9,6.3,2.9,10.8V80.6z M245.3,80.1
				c0-2.4-0.4-4.4-1.1-5.8c-0.7-1.5-1.8-2.2-3.4-2.2c-1,0-1.9,0.2-2.6,0.6c-0.7,0.4-1.2,0.9-1.7,1.6v12c0.4,0.6,1,1.1,1.7,1.4
				c0.7,0.3,1.6,0.5,2.6,0.5c1.6,0,2.7-0.6,3.4-1.9c0.7-1.3,1-3.1,1-5.4V80.1z"/>
			<path class="st0" d="M268.7,58.6v7.1h4.8v6.2h-4.8V85c0,1,0.2,1.8,0.6,2.2c0.4,0.5,1,0.7,1.7,0.7c0.6,0,1,0,1.3-0.1
				c0.3,0,0.7-0.1,1.3-0.2l0.6,6.6c-1,0.2-1.9,0.4-2.7,0.5s-1.7,0.1-2.8,0.1c-2.9,0-5.2-0.8-6.7-2.4c-1.5-1.6-2.3-4.1-2.3-7.5V71.9
				h-4v-6.2h4v-7.1H268.7z"/>
			<path class="st0" d="M275.8,79.8c0-4.3,1.2-7.8,3.7-10.5c2.4-2.7,5.8-4.1,10.2-4.1c4.4,0,7.8,1.4,10.2,4.1
				c2.4,2.7,3.7,6.2,3.7,10.5v0.6c0,4.3-1.2,7.8-3.7,10.5c-2.4,2.7-5.8,4.1-10.2,4.1c-4.4,0-7.8-1.4-10.2-4.1
				c-2.4-2.7-3.7-6.2-3.7-10.5V79.8z M284.7,80.3c0,2.4,0.4,4.3,1.1,5.7c0.8,1.4,2,2.1,3.8,2.1c1.7,0,3-0.7,3.8-2.1
				c0.8-1.4,1.1-3.3,1.1-5.6v-0.6c0-2.3-0.4-4.2-1.1-5.6c-0.8-1.4-2-2.1-3.8-2.1c-1.8,0-3,0.7-3.8,2.1c-0.8,1.4-1.1,3.3-1.1,5.6
				V80.3z"/>
			<path class="st0" d="M315.7,65.7l0.3,4c0.9-1.4,2.1-2.5,3.5-3.4c1.4-0.8,2.9-1.2,4.6-1.2c2.8,0,5,0.9,6.6,2.7
				c1.6,1.8,2.4,4.7,2.4,8.7v17.8h-9V76.6c0-1.6-0.3-2.8-1-3.5c-0.7-0.7-1.7-1-3-1c-0.8,0-1.6,0.2-2.2,0.5c-0.6,0.3-1.2,0.7-1.7,1.2
				v20.6h-8.9V65.7H315.7z"/>
			<path class="st0" d="M351,94.9c-4.2,0-7.6-1.3-10.1-4c-2.5-2.6-3.8-6-3.8-10v-1c0-4.4,1.1-7.9,3.4-10.7c2.3-2.8,5.6-4.1,9.8-4.1
				c3.9,0,6.9,1.2,9.1,3.5c2.2,2.3,3.3,5.5,3.3,9.5v4.7h-16.4l-0.1,0.2c0.2,1.5,0.8,2.7,1.8,3.6c1,0.9,2.3,1.4,4,1.4
				c1.7,0,3-0.1,4.1-0.4s2.3-0.7,3.9-1.4l2.1,5.5c-1.3,0.9-2.9,1.7-4.9,2.3C355.4,94.6,353.3,94.9,351,94.9z M350.4,72.1
				c-1.3,0-2.3,0.5-2.9,1.4c-0.6,0.9-1,2.1-1.2,3.7l0.1,0.1h7.7v-0.7c0-1.4-0.3-2.6-0.9-3.3C352.6,72.4,351.7,72.1,350.4,72.1z"/>
			<path class="st0" d="M391.2,82.3h0.2l3.1-16.6h8.3L396,94.4h-7.6l-4.7-15.2h-0.2l-4.7,15.2h-7.5l-6.8-28.7h8.3l3.2,16.7h0.2
				l4.7-16.7h5.6L391.2,82.3z"/>
			<path class="st0" d="M420.9,86.3c0-0.7-0.4-1.3-1.2-1.9c-0.8-0.6-2.3-1.1-4.4-1.5c-3.3-0.7-5.9-1.7-7.5-3
				c-1.7-1.4-2.5-3.3-2.5-5.6c0-2.5,1.1-4.7,3.2-6.4c2.1-1.8,5-2.6,8.6-2.6c3.8,0,6.8,0.9,9.1,2.6c2.3,1.7,3.3,3.9,3.2,6.6l-0.1,0.2
				h-8.7c0-1.1-0.3-2-0.9-2.6c-0.6-0.6-1.5-0.9-2.8-0.9c-0.9,0-1.7,0.3-2.4,0.8c-0.6,0.5-1,1.2-1,2c0,0.8,0.4,1.4,1.1,1.9
				c0.7,0.5,2.2,1,4.4,1.4c3.5,0.7,6.1,1.7,7.8,3.1c1.7,1.4,2.5,3.3,2.5,5.8c0,2.6-1.1,4.7-3.4,6.4c-2.3,1.7-5.3,2.5-9.1,2.5
				c-3.9,0-7-1-9.3-3c-2.3-2-3.3-4.2-3.2-6.6l0.1-0.2h8.1c0,1.4,0.4,2.3,1.2,2.9c0.8,0.6,1.9,0.9,3.4,0.9c1.2,0,2.1-0.2,2.7-0.7
				C420.6,87.8,420.9,87.2,420.9,86.3z"/>
		</g>
	</g>
	<g>
		<g>
			<g>
				
					<linearGradient id="SVGID_1_" gradientUnits="userSpaceOnUse" x1="93.1379" y1="90.9493" x2="136.7995" y2="90.9493" gradientTransform="matrix(1 0 0 1 2.222062e-02 -3.371921e-02)">
					<stop  offset="0" style="stop-color:#130813"/>
					<stop  offset="1" style="stop-color:#0D061A"/>
				</linearGradient>
				<polygon class="st1" points="115,80 93.2,101.8 136.8,101.8 				"/>
			</g>
			<g>
				
					<linearGradient id="SVGID_2_" gradientUnits="userSpaceOnUse" x1="49.4763" y1="80.0337" x2="71.3071" y2="80.0337" gradientTransform="matrix(1 0 0 1 2.222062e-02 -3.371921e-02)">
					<stop  offset="0" style="stop-color:#EF4C96"/>
					<stop  offset="1" style="stop-color:#F74B7E"/>
				</linearGradient>
				<polygon class="st2" points="71.3,80 49.5,58.2 49.5,101.8 				"/>
			</g>
			<g>
				
					<linearGradient id="SVGID_3_" gradientUnits="userSpaceOnUse" x1="93.138" y1="69.1184" x2="136.7996" y2="69.1184" gradientTransform="matrix(1 0 0 1 2.222062e-02 -3.371921e-02)">
					<stop  offset="0" style="stop-color:#130813"/>
					<stop  offset="1" style="stop-color:#0D061A"/>
				</linearGradient>
				<polygon class="st3" points="115,80 136.8,58.2 93.2,58.2 				"/>
			</g>
			<g>
				
					<linearGradient id="SVGID_4_" gradientUnits="userSpaceOnUse" x1="71.3072" y1="47.2876" x2="114.9688" y2="47.2876" gradientTransform="matrix(1 0 0 1 2.222062e-02 -3.371921e-02)">
					<stop  offset="0" style="stop-color:#87002D"/>
					<stop  offset="1" style="stop-color:#3B016F"/>
				</linearGradient>
				<polygon class="st4" points="93.2,58.2 115,36.3 71.3,36.3 				"/>
			</g>
			<g>
				
					<linearGradient id="SVGID_5_" gradientUnits="userSpaceOnUse" x1="93.1379" y1="112.78" x2="136.7995" y2="112.78" gradientTransform="matrix(1 0 0 1 2.222062e-02 -3.371921e-02)">
					<stop  offset="0" style="stop-color:#2C002D"/>
					<stop  offset="1" style="stop-color:#14004F"/>
				</linearGradient>
				<polygon class="st5" points="115,123.7 136.8,101.8 93.2,101.8 				"/>
			</g>
			<g>
				
					<linearGradient id="SVGID_6_" gradientUnits="userSpaceOnUse" x1="49.4763" y1="112.7799" x2="93.1379" y2="112.7799" gradientTransform="matrix(1 0 0 1 2.222062e-02 -3.371921e-02)">
					<stop  offset="0" style="stop-color:#E70016"/>
					<stop  offset="1" style="stop-color:#8E0162"/>
				</linearGradient>
				<polygon class="st6" points="71.3,123.7 93.2,101.8 49.5,101.8 				"/>
			</g>
			<g>
				
					<linearGradient id="SVGID_7_" gradientUnits="userSpaceOnUse" x1="93.138" y1="47.2877" x2="136.7996" y2="47.2877" gradientTransform="matrix(1 0 0 1 2.222062e-02 -3.371921e-02)">
					<stop  offset="0" style="stop-color:#2C002D"/>
					<stop  offset="1" style="stop-color:#14004F"/>
				</linearGradient>
				<polygon class="st7" points="115,36.3 93.2,58.2 136.8,58.2 				"/>
			</g>
			<g>
				
					<linearGradient id="SVGID_8_" gradientUnits="userSpaceOnUse" x1="49.4764" y1="47.2876" x2="93.138" y2="47.2876" gradientTransform="matrix(1 0 0 1 2.222062e-02 -3.371921e-02)">
					<stop  offset="0" style="stop-color:#E70016"/>
					<stop  offset="1" style="stop-color:#8E0162"/>
				</linearGradient>
				<polygon class="st8" points="49.5,58.2 93.2,58.2 71.3,36.3 				"/>
			</g>
			<g>
				
					<linearGradient id="SVGID_9_" gradientUnits="userSpaceOnUse" x1="71.307" y1="112.78" x2="114.9686" y2="112.78" gradientTransform="matrix(1 0 0 1 2.222062e-02 -3.371921e-02)">
					<stop  offset="0" style="stop-color:#87002D"/>
					<stop  offset="1" style="stop-color:#3B016F"/>
				</linearGradient>
				<polygon class="st9" points="93.2,101.8 71.3,123.7 115,123.7 				"/>
			</g>
			<g>
				
					<linearGradient id="SVGID_10_" gradientUnits="userSpaceOnUse" x1="49.4763" y1="90.9492" x2="93.1379" y2="90.9492" gradientTransform="matrix(1 0 0 1 2.222062e-02 -3.371921e-02)">
					<stop  offset="0" style="stop-color:#F7174A"/>
					<stop  offset="1" style="stop-color:#B91889"/>
				</linearGradient>
				<polygon class="st10" points="71.3,80 49.5,101.8 93.2,101.8 				"/>
			</g>
			<g>
				
					<linearGradient id="SVGID_11_" gradientUnits="userSpaceOnUse" x1="49.4764" y1="69.1183" x2="93.138" y2="69.1183" gradientTransform="matrix(1 0 0 1 2.222062e-02 -3.371921e-02)">
					<stop  offset="0" style="stop-color:#F7174A"/>
					<stop  offset="1" style="stop-color:#B91889"/>
				</linearGradient>
				<polygon class="st11" points="93.2,58.2 49.5,58.2 71.3,80 				"/>
			</g>
		</g>
	</g>
</g>
</svg>
