<svg xmlns="http://www.w3.org/2000/svg" width="197.489" height="33.574"><defs><style>.prefix__cls-1{fill:red}</style></defs><path data-name="Path 195" d="M180.186 10.097h-.774v5.266h-2.176V3.43h2.176v4.567h.692l3.436-4.567h2.86l-4.5 5.459 4.865 6.475h-2.967zm-88.3-2.12a.86.86 0 01-.448.823 2.069 2.069 0 01-1.009.247h-1.807V5.361h1.807a1.624 1.624 0 011.035.329 1.109 1.109 0 01.422.936zM86.444 3.43v11.934h2.178v-4.386h1.842a4.835 4.835 0 001.388-.195 3.367 3.367 0 001.139-.57 2.723 2.723 0 00.781-.939 2.773 2.773 0 00.29-1.3V6.623a3.337 3.337 0 00-.271-1.388 2.813 2.813 0 00-.756-1 3.251 3.251 0 00-1.148-.607 5.12 5.12 0 00-1.457-.2zm16.476 8.233a1.7 1.7 0 01-.21.859 1.915 1.915 0 01-.554.616 2.315 2.315 0 01-.8.358 3.9 3.9 0 01-.947.115h-.264a3.969 3.969 0 01-.966-.115 2.573 2.573 0 01-.808-.35 1.8 1.8 0 01-.562-.606 1.747 1.747 0 01-.209-.877V7.117a1.611 1.611 0 01.209-.832 1.866 1.866 0 01.572-.607 2.578 2.578 0 01.816-.37 3.592 3.592 0 01.93-.123h.282a3.237 3.237 0 01.92.133 2.66 2.66 0 01.8.377 1.963 1.963 0 01.569.606 1.553 1.553 0 01.221.833zm-.756-8.144a5.881 5.881 0 00-1.752-.263h-.282a6.245 6.245 0 00-1.781.254 4.592 4.592 0 00-1.5.756 3.77 3.77 0 00-1.035 1.211 3.361 3.361 0 00-.386 1.641v4.546a3.606 3.606 0 00.377 1.691 3.491 3.491 0 001.017 1.214 4.506 4.506 0 001.5.726 6.6 6.6 0 001.826.249h.264a6.441 6.441 0 001.8-.249 4.442 4.442 0 001.492-.736 3.613 3.613 0 001.017-1.22 3.6 3.6 0 00.377-1.675V7.118a3.288 3.288 0 00-.4-1.625 3.9 3.9 0 00-1.044-1.209 4.7 4.7 0 00-1.492-.765m4.674-.089v11.934h7.169v-1.93h-4.993v-10zm8.733 11.934h2.176V3.43h-2.176zm7.237-9.985v9.985h2.176V5.379h3.563V3.43h-9.267v1.932zm13.26 4.756V8.294h-3.808V5.361h4.527V3.429h-6.7v11.933h7.072v-1.929h-4.9v-3.3zm7.093-4.949a3.232 3.232 0 011.537.343 5.721 5.721 0 011.2.868l1.193-1.474a10.225 10.225 0 00-.817-.737 4.31 4.31 0 00-.841-.527 3.89 3.89 0 00-1-.306 7.448 7.448 0 00-1.273-.1 5.779 5.779 0 00-1.755.263 4.288 4.288 0 00-1.438.765 3.664 3.664 0 00-.976 1.219 3.6 3.6 0 00-.358 1.633v4.527a3.826 3.826 0 00.351 1.691 3.387 3.387 0 00.957 1.214 4.123 4.123 0 001.438.726 6.307 6.307 0 001.8.249 7.542 7.542 0 002.116-.281 4.973 4.973 0 001.852-1.07l-.947-1.6a3.761 3.761 0 01-1.362.773 5.341 5.341 0 01-1.658.247 2.928 2.928 0 01-1.692-.465 1.671 1.671 0 01-.676-1.483V7.134a1.8 1.8 0 01.184-.833 1.735 1.735 0 01.509-.606 2.375 2.375 0 01.755-.377 3.045 3.045 0 01.9-.133m12.666 3.422h-4.9V3.428h-2.172v11.934h2.176v-4.825h4.9v4.825h2.174V3.43h-2.174zm12.4 4.492l-5.019-9.671h-2.843v11.934h1.932V5.939l4.842 9.423h3.02V3.43h-1.932zm4.38 2.263h2.175V3.43h-2.175zm18.164-4.582l1.542-5.175 1.528 5.175zm.243-7.438l-3.948 12.019h2.317l.841-2.824h4.16l.826 2.824h2.281l-3.825-12.019zM16.145 5.09l-1.725 1.3.732.974 1.4-1.052h1.626l.518-3.821-3.637-.661-.345 1.97 1.2.209.133-.763 1.286.234-.218 1.613zm43.3 1.218l1.4 1.052.732-.974-1.725-1.3h-.966l-.22-1.613 1.285-.233.134.763 1.2-.209-.343-1.97-3.636.661.517 3.82zm9.629 12.658l-2.273-1.7v-2.49l-2.414-1.818.708-.941-3.583-2.696-4.244 2.312v4.358l-4.645 2.187-.786-2.3h-1.829V4.588H25.997v10.093h-1.829l-.73 2.13-4.7-.683v-4.5l-4.244-2.312-3.592 2.693.71.941-2.414 1.818v2.49l-2.272 1.7v4.908h1.2v1.218H4.165L3.03 26.69l2.809 5.658h4.162l-.876-1.773H7.398l-1.886-3.8h4.619V21.12l5.293-3.965-1.17-1.537.968-.738 1.78 2.338V18.7h5.862l1.911-.56v-1.021h1.218v9.069l12 4.61 12-4.61v-7.87h1.218v1.019l1.846.542 5.928-1.3v-1.362l1.779-2.338.968.738-1.169 1.537 5.292 3.965v5.655h4.619l-1.886 3.8h-1.716l-.874 1.773h4.162l2.807-5.658-1.135-1.606h-3.959v-1.218h1.2zm-49.123-8.039v2.842l3.472-2.608h1.353V6.904h-.634l-.8 2.349zm0 4.15h.019l-.019-.025zm4.825-2.7h-.946l-3.64 2.734 2.419.352.686-2h1.481zm27.389 0h-.947v2.284h1.483l.626 1.833 2.656-1.249zm-.947-5.473v4.257h1.353l3.472 2.608v-2.842l-3.387-1.674-.8-2.349zm22.858 7.378l.688-.9-1.9-1.424-1.658 2.172v.94l2.236 1.682v3.447l-.994 1.3-2.156-1.617v3.995h2.169l1.918 2.713-3.466 6.986h-6.268v-1.227l1.474-2.979h1.726l.679-1.366H64.65v-6.263l-1.285-.962-4.941 2.528v3.363l1.176 1.662-1.12 2.254h-1.725l-.877 1.773h4.163l2.139-4.311-1.053-1.491v-2.68h2.316v1.218h-1.1v1.075l1.251 1.767-2.8 5.639h-6.268v-1.227l1.473-2.979h1.727l.461-.927-.979-1.385v-4.5l5.075-2.595-2.066-1.55v1.153l-7.189 1.576-1.8-.53v6.42l-13.221 5.077-13.221-5.077v-7.615l-1.738.508h-7.254v-1.512l-2.066 1.55 5.076 2.595v4.5l-.98 1.385.462.927h1.728l1.473 2.979v1.227h-6.269l-2.8-5.639 1.249-1.767v-1.075h-1.1v-1.218h2.314v2.68l-1.059 1.493 2.141 4.311h4.162l-.877-1.773h-1.724l-1.12-2.254 1.175-1.662v-3.363l-4.942-2.528-1.283.962v6.263H7.48l.677 1.366h1.729l1.472 2.979v1.227H5.089l-3.466-6.986 1.919-2.713h2.169v-3.995l-2.156 1.617-.994-1.3V16.75l2.235-1.682v-.94l-1.658-2.172-1.9 1.424.688.9.974-.73.73.974-1.941 1.455L.005 13.77v-.99l3.37-2.525 2.639 3.46v1.958l-2.233 1.681v2.426l.009.016 4.194-3.145v-2.49l2.5-1.887-.707-.945 3.539-2.654-1.094-.6-3.134 2.349.707.942-2.269 1.7-.729-.976 2.26-1.694-.706-.942 2.7-2.018-.018-.011V6.031L7.669 8.552l.706.94-1.828 1.372-.73-.975 1.822-1.365-.708-.944 4.1-3.072V3.091L6.242 6.678l.706.943-1.372 1.027-.731-.976 1.365-1.02-.7-.943 5.527-4.14V-.008h1.218V1.31l1.916.348-.217 1.2-1.7-.307v4.152l3.279 1.787 1.509-1.132.731.974-1.065.8 1.964 1.07 3.689-1.823.922-2.7h1.5V3.366h26.442v2.313h1.5l.922 2.7 3.689 1.823 1.963-1.07-1.065-.8.73-.974 1.51 1.132 3.279-1.787V2.551l-1.7.307-.217-1.2 1.918-.348V-.008h1.217v1.577l5.526 4.14-.7.943 1.365 1.02-.73.976-1.371-1.027.7-.943-4.789-3.587v1.417l4.1 3.072-.7.944 1.821 1.365-.731.975-1.828-1.372.706-.94-3.364-2.521v1.394l-.018.011 2.7 2.018-.707.942 2.262 1.694-.73.976-2.268-1.7.706-.942-3.134-2.349-1.1.6 3.542 2.654-.709.945 2.507 1.887v2.49l4.193 3.145.01-.016v-2.426l-2.234-1.681v-1.958l2.64-3.46 3.369 2.525v.99l-1.683 2.209-1.942-1.455.73-.974zm-40.467-3.2a.718.718 0 00-.451-.141h-1.246v1.618h1.252a.9.9 0 00.438-.108.373.373 0 00.195-.359v-.6a.485.485 0 00-.182-.408m12.47-1.59l-1.088.734.27 1.067h-1.3l.411-1.07-.726-1.213-.727 1.213.411 1.07h-1.3l.271-1.07-1.088-.733.231 1.8v1.122h4.408v-1.12zm-.543 5.82l-1.4.168.184-1.381h-1.348l.185 1.4-1.407-.187v1.339l1.407-.167-.185 1.39h1.348l-.184-1.4 1.4.176zm0 5.457l-1.4.168.184-1.383h-1.348l.185 1.4-1.407-.188v1.339l1.407-.164-.185 1.388h1.348l-.184-1.4 1.4.175zM38.38 9.95h-.763v13.469h.763zm-3.641 1.541a1.44 1.44 0 00-.117-.6 1.23 1.23 0 00-.329-.435 1.446 1.446 0 00-.5-.264 2.191 2.191 0 00-.634-.086h-2.2v5.185h.945v-1.89h1.267a2.111 2.111 0 00.6-.084 1.546 1.546 0 00.5-.248 1.237 1.237 0 00.34-.41 1.23 1.23 0 00.124-.565zm-.133 8.359h-1.7v.762h.752v1.124a1.638 1.638 0 01-.471.183 2.891 2.891 0 01-.492.038 1.886 1.886 0 01-.43-.046.968.968 0 01-.348-.15.736.736 0 01-.237-.262.787.787 0 01-.088-.389v-1.968a.728.728 0 01.091-.365.843.843 0 01.24-.269 1.083 1.083 0 01.348-.159 1.552 1.552 0 01.41-.053 1.91 1.91 0 01.7.137 2.491 2.491 0 01.634.358l.425-.688a2.27 2.27 0 00-.808-.5 2.941 2.941 0 00-.954-.152 2.732 2.732 0 00-.779.111 2.031 2.031 0 00-.65.321 1.509 1.509 0 00-.442.526 1.551 1.551 0 00-.164.728v1.968a1.676 1.676 0 00.157.751 1.458 1.458 0 00.43.523 1.942 1.942 0 00.649.308 3.058 3.058 0 00.808.1 3.1 3.1 0 00.53-.042 2.312 2.312 0 00.46-.126 3.7 3.7 0 00.448-.2q.224-.12.477-.264zm14.21-14.072v19.6l-10.815 4.154-10.814-4.154v-19.6zm98.859 26.185h2.965l-4.863-6.474 4.5-5.458h-2.865l-3.438 4.566h-.691v-4.566h-2.176v11.932h2.176v-5.269h.772zm-56.563-4.841h2.281v2.582a3.55 3.55 0 01-1.082.42 6.209 6.209 0 01-1.137.089 4.289 4.289 0 01-.986-.107 2.3 2.3 0 01-.8-.34 1.731 1.731 0 01-.547-.606 1.821 1.821 0 01-.2-.894v-4.529a1.649 1.649 0 01.211-.843 1.9 1.9 0 01.551-.612 2.48 2.48 0 01.8-.37 3.644 3.644 0 01.949-.124 4.414 4.414 0 011.616.317 5.8 5.8 0 011.455.823l.982-1.579a5.193 5.193 0 00-1.859-1.138 6.647 6.647 0 00-2.194-.354 6.178 6.178 0 00-1.8.258 4.718 4.718 0 00-1.492.734 3.565 3.565 0 00-1.017 1.214 3.591 3.591 0 00-.377 1.675v4.529a3.836 3.836 0 00.361 1.728 3.308 3.308 0 00.991 1.2 4.425 4.425 0 001.492.709 6.848 6.848 0 001.859.238 7.163 7.163 0 001.22-.1 5.649 5.649 0 001.062-.288 10.191 10.191 0 001.025-.464q.518-.272 1.1-.608v-5.317h-4.464zm12.706.971a1.754 1.754 0 01-.21.894 1.8 1.8 0 01-.559.605 2.445 2.445 0 01-.813.342 4.458 4.458 0 01-.97.1h-1.608v-8.072h1.8a3.979 3.979 0 01.944.1 2.033 2.033 0 01.751.343 1.628 1.628 0 01.488.6 2 2 0 01.176.875zm-6.3-8.058v11.933h3.756a7.02 7.02 0 001.842-.23 4.31 4.31 0 001.5-.7 3.329 3.329 0 001.007-1.2 3.749 3.749 0 00.37-1.727v-4.214a4.121 4.121 0 00-.333-1.725 3.2 3.2 0 00-.93-1.2 3.985 3.985 0 00-1.43-.7 7.006 7.006 0 00-1.833-.226zm13.024 7.353l1.545-5.177 1.526 5.177zm.246-7.441l-3.95 12.021h2.317l.842-2.827h4.161l.824 2.827h2.282L113.44 19.95zm15.883 9.758l-5.018-9.67h-2.841v11.933h1.93v-9.427l4.844 9.427h3.019V20.035h-1.933zm8.86-4.775a25.21 25.21 0 01-.9-.235 4.027 4.027 0 01-.826-.335 2.139 2.139 0 01-.6-.475.97.97 0 01-.238-.672 1.19 1.19 0 01.183-.677 1.427 1.427 0 01.485-.439 2.19 2.19 0 01.684-.235 4.478 4.478 0 01.787-.073 3.01 3.01 0 01.747.106 5.157 5.157 0 01.765.273 6.544 6.544 0 01.684.36 3.434 3.434 0 01.526.386l1.211-1.615a7.373 7.373 0 00-1.7-1.017 5.517 5.517 0 00-2.231-.424 6.816 6.816 0 00-1.674.2 4.062 4.062 0 00-1.369.594 2.889 2.889 0 00-.931 1.045 3.185 3.185 0 00-.342 1.518 3.392 3.392 0 00.237 1.332 2.724 2.724 0 00.693.974 4.262 4.262 0 001.112.712 14.24 14.24 0 001.485.561c.291.079.608.167.948.255a5.46 5.46 0 01.946.333 2.33 2.33 0 01.729.5 1.042 1.042 0 01.29.752 1.243 1.243 0 01-.212.738 1.5 1.5 0 01-.544.476 2.763 2.763 0 01-.754.253 4.38 4.38 0 01-.841.079 2.907 2.907 0 01-.861-.141 4.727 4.727 0 01-.879-.368 5.435 5.435 0 01-.782-.517 2.817 2.817 0 01-.567-.606l-1.422 1.349a4.161 4.161 0 00.868.941 5.4 5.4 0 001.121.691 6.1 6.1 0 001.292.43 6.469 6.469 0 001.387.15 6.783 6.783 0 001.674-.2 4.1 4.1 0 001.4-.63 3.165 3.165 0 00.948-1.088 3.252 3.252 0 00.35-1.555 3.565 3.565 0 00-.263-1.438 2.785 2.785 0 00-.763-1.018 4.656 4.656 0 00-1.221-.72 11.809 11.809 0 00-1.631-.527m19.1 2.458l1.545-5.177 1.527 5.177zm.245-7.441l-3.947 12.021h2.316l.841-2.827h4.161l.823 2.827h2.281l-3.819-12.021zm-30.652-2.216l-.782 2.9h1.269l1.653-2.9h-2.139z" fill="currentColor"/></svg>