<svg fill="currentColor" stroke="none" viewBox="0 0 194 34" xmlns="http://www.w3.org/2000/svg" style="--fid1971ii:auto; --fid1971iu:2rem;" class="fid197ho fid197xo fid197lo fid19710l fid1971ij fid1971iv" focusable="false"><g clip-path="url(#logoText)"><path d="M58.9246 22.5009H50.2021L48.5887 27.2793H44.0474L51.696 6.24707H57.4307L65.0793 27.2777H60.538L58.9246 22.5009ZM57.8191 19.1549L55.3991 11.9549C55.1074 10.9848 54.9466 9.98008 54.921 8.96739C54.921 8.78814 54.8613 8.54913 54.5625 8.54913C54.2638 8.54913 54.204 8.78814 54.204 8.96739C54.1789 9.98001 54.0187 10.9847 53.7276 11.9549L51.3075 19.1549H57.8191Z" fill="currentColor"></path><path d="M80.5857 17.9598V27.2793H76.768V19.2743C76.768 15.7192 75.8418 14.7333 73.84 14.7333C71.6291 14.7333 69.5974 17.2129 69.5974 20.8577V27.2793H65.7798V11.5117H69.5974V12.4976C69.6202 13.2454 69.4559 13.987 69.1194 14.6553C68.9999 14.9241 68.8206 15.3424 69.209 15.432C69.4481 15.4918 69.541 15.3125 69.6572 15.0735C70.3743 13.4901 72.1669 11.2793 74.9156 11.2793C78.315 11.2677 80.5857 13.4785 80.5857 17.9598Z" fill="currentColor"></path><path d="M88.6176 11.2676C91.0675 11.2676 92.5913 12.4925 93.6071 14.1356C93.637 14.1954 93.8162 14.5837 94.0851 14.4676C94.3839 14.3481 94.1747 13.9597 94.0253 13.6609C93.7898 13.2207 93.6752 12.7259 93.6934 12.2269V11.5099H97.511V25.6094C97.511 30.6584 94.5532 33.2575 89.7097 33.2575C84.7501 33.2575 82.4794 30.6019 82.2106 27.6409H85.9751C86.1543 29.0766 87.1104 30.1505 89.65 30.1505C92.3389 30.1505 93.6834 28.6567 93.6834 25.7605C93.6687 25.2714 93.7832 24.787 94.0154 24.3563C94.1648 24.0576 94.3739 23.7588 94.0752 23.6094C93.8063 23.4899 93.6569 23.7588 93.5971 23.8783C92.5813 25.6094 90.9978 26.8061 88.6076 26.8061C84.5144 26.8061 81.7358 23.2808 81.7358 19.0385C81.7358 14.7962 84.5294 11.2676 88.6176 11.2676ZM93.6967 19.0352C93.6967 16.7115 92.0236 14.7331 89.5139 14.7331C86.8249 14.7331 85.5701 16.7049 85.5701 19.0352C85.5701 21.3655 86.8249 23.3372 89.5139 23.3372C92.0286 23.3422 93.7017 21.3655 93.7017 19.0352H93.6967Z" fill="currentColor"></path><path d="M113.898 20.3542H102.426C102.694 22.7442 104.251 24.1716 106.638 24.1716C108.464 24.1716 109.387 23.1857 109.835 21.7816H113.719C113.032 25.038 110.821 27.516 106.608 27.516C101.499 27.516 98.6909 24.082 98.6909 19.3915C98.6909 14.4621 101.738 11.2588 106.549 11.2588C110.2 11.2588 113.988 13.4397 113.988 19.1758C113.987 19.5703 113.958 19.9641 113.898 20.3542ZM110.164 17.7251C110.014 15.8131 108.879 14.3791 106.668 14.3791C104.069 14.3791 102.963 15.843 102.575 17.7251H110.164Z" fill="currentColor"></path><path d="M118.978 5.77148V27.2801H115.16V5.77148H118.978Z" fill="currentColor"></path><path d="M134.604 16.257C134.598 16.3063 134.601 16.3563 134.615 16.4041C134.628 16.4519 134.651 16.4966 134.682 16.5355C134.713 16.5744 134.751 16.6068 134.795 16.6308C134.838 16.6548 134.886 16.6699 134.936 16.6752C138.102 17.3391 139.268 19.4835 139.268 21.4885C139.268 24.954 136.944 27.2827 132.628 27.2827H121.574V6.24707H130.895C135.497 6.24707 138.305 7.92009 138.305 11.6844C138.305 13.5665 136.961 15.1798 134.899 15.8337C134.809 15.8595 134.73 15.9156 134.676 15.9928C134.622 16.0699 134.597 16.1632 134.604 16.257ZM125.64 14.8528H130.809C133.05 14.8528 134.036 13.6279 134.036 12.1342C134.036 10.6404 133.05 9.71428 130.809 9.71428H125.64V14.8528ZM135.201 21.0072C135.201 19.4536 133.916 18.1989 131.586 18.1989H125.64V23.8154H131.586C134.066 23.8154 135.201 22.6204 135.201 21.0072Z" fill="currentColor"></path><path d="M144.971 5.77148V27.2801H141.154V5.77148H144.971Z" fill="currentColor"></path><path d="M161.912 19.3945C161.912 23.8758 158.954 27.5189 154.024 27.5189C149.095 27.5189 146.137 23.8758 146.137 19.3945C146.137 14.9132 149.095 11.2617 154.024 11.2617C158.954 11.2617 161.912 14.9132 161.912 19.3945ZM158.094 19.3945C158.094 16.8252 156.63 14.7339 154.031 14.7339C151.432 14.7339 149.968 16.8252 149.968 19.3945C149.968 21.9637 151.432 24.055 154.031 24.055C156.63 24.055 158.088 21.9637 158.088 19.3945H158.094Z" fill="currentColor"></path><path d="M170.695 11.2676C175.117 11.2676 177.745 14.2551 178.015 17.4817H174.251C174.012 15.9879 172.847 14.7331 170.695 14.7331C168.066 14.7331 166.546 16.6451 166.546 19.3937C166.546 22.1422 168.07 24.0542 170.695 24.0542C172.853 24.0542 174.015 22.7995 174.251 21.3057H178.015C177.745 24.5322 175.147 27.5181 170.695 27.5181C165.882 27.5181 162.718 24.0841 162.718 19.3937C162.718 14.7033 165.801 11.2676 170.695 11.2676Z" fill="currentColor"></path><path d="M189.22 27.2801L184.38 20.6876L183.005 22.0619V27.2884H179.188V5.77148H183.005V15.1822C183.005 16.437 182.706 16.9449 182.228 17.5424C182.109 17.6918 182.049 17.9009 182.228 18.0503C182.467 18.2295 182.647 18.0503 182.736 17.9606L188.742 11.5076H193.52L186.947 18.11L193.998 27.2801H189.22Z" fill="currentColor"></path><path fill-rule="evenodd" clip-rule="evenodd" d="M25.2372 33.1632C27.7269 32.8544 29.6889 32.3051 30.9869 30.9773C32.3197 29.686 32.8824 27.696 33.1746 25.2296C33.4667 22.7632 33.5414 19.7524 33.5331 16.7649C33.5248 13.7774 33.4833 10.7898 33.1746 8.3002C32.8658 5.81059 32.3164 3.84877 30.9885 2.55251C29.6905 1.21808 27.7053 0.660407 25.2388 0.366632C22.7723 0.0728577 19.7613 -0.001833 16.7736 0.00646572C13.7858 0.0147644 10.7981 0.05792 8.30834 0.366632C5.81857 0.675344 3.85663 1.22472 2.55863 2.55251C1.22577 3.84877 0.664734 5.83382 0.3726 8.3002C0.0804668 10.7666 0.00743789 13.7774 0.0140773 16.7649C0.0207167 19.7524 0.0638683 22.7416 0.3726 25.2296C0.681332 27.7175 1.23075 29.6794 2.55863 30.9773C3.85663 32.31 5.84015 32.8694 8.30669 33.1632C10.7732 33.4569 13.7842 33.5283 16.7719 33.5217C19.7597 33.515 22.7474 33.4719 25.2372 33.1632ZM16.7644 27.3256C14.6759 27.3253 12.6344 26.7057 10.8981 25.5452C9.1617 24.3848 7.80847 22.7355 7.00946 20.806C6.21046 18.8766 6.00157 16.7535 6.40921 14.7053C6.81686 12.6571 7.82273 10.7758 9.29964 9.29919C10.7765 7.82262 12.6582 6.8171 14.7065 6.40981C16.7549 6.00251 18.8781 6.21172 20.8076 7.01098C22.7371 7.81023 24.3862 9.16364 25.5465 10.9001C26.7068 12.6365 27.326 14.678 27.326 16.7663C27.323 19.5662 26.2092 22.2504 24.2291 24.2301C22.2491 26.2097 19.5644 27.323 16.7644 27.3256ZM16.7644 7.98131C15.0269 7.98163 13.3284 8.49714 11.8839 9.46265C10.4393 10.4282 9.31348 11.8003 8.64878 13.4056C7.98407 15.0109 7.81032 16.7772 8.1495 18.4812C8.48868 20.1852 9.32556 21.7504 10.5543 22.9789C11.7831 24.2073 13.3485 25.0438 15.0527 25.3827C16.7569 25.7215 18.5233 25.5474 20.1286 24.8825C21.7338 24.2175 23.1058 23.0915 24.0711 21.6468C25.0364 20.2022 25.5517 18.5038 25.5517 16.7663C25.549 14.4368 24.6224 12.2034 22.975 10.5561C21.3277 8.90886 19.0941 7.98228 16.7644 7.97964V7.98131ZM14.9452 14.5779C14.9452 15.4634 14.2273 16.1812 13.3417 16.1812C12.4562 16.1812 11.7383 15.4634 11.7383 14.5779C11.7383 13.6924 12.4562 12.9746 13.3417 12.9746C14.2273 12.9746 14.9452 13.6924 14.9452 14.5779ZM21.8538 14.5779C21.8538 15.4634 21.136 16.1812 20.2504 16.1812C19.3649 16.1812 18.647 15.4634 18.647 14.5779C18.647 13.6924 19.3649 12.9746 20.2504 12.9746C21.136 12.9746 21.8538 13.6924 21.8538 14.5779Z" fill="currentColor"></path></g><defs><clipPath id="logoText"><rect width="194" height="33.5285" fill="white"></rect></clipPath></defs></svg>