<svg width="777" height="120" viewBox="0 0 777 120" fill="none" xmlns="http://www.w3.org/2000/svg">
<g clip-path="url(#clip0_704_8)">
<path d="M209.41 110.828C201.948 110.828 195.169 109.554 189.072 107.006C183.067 104.458 177.88 100.955 173.513 96.4963C169.236 91.9466 165.914 86.578 163.549 80.3905C161.183 74.112 160 67.3329 160 60.0535C160 52.774 161.183 46.0406 163.549 39.853C166.006 33.5745 169.373 28.1604 173.648 23.6107C178.016 19.0611 183.203 15.5124 189.209 12.9645C195.305 10.4167 202.039 9.14282 209.41 9.14282C214.778 9.14282 219.782 9.82527 224.423 11.1902C229.063 12.4641 233.159 14.3294 236.707 16.7863C241.802 20.244 245.761 24.6117 248.581 29.8893C251.494 35.0758 253.268 40.8085 253.904 47.087H225.378C225.197 45.1761 224.651 43.3563 223.741 41.6274C222.922 39.8985 221.784 38.3516 220.328 36.9867C218.964 35.6218 217.28 34.5754 215.279 33.8475C213.367 33.0285 211.274 32.6191 208.999 32.6191C205.633 32.6191 202.675 33.3015 200.128 34.6664C197.671 36.0313 195.578 37.9422 193.849 40.399C192.211 42.7648 190.984 45.631 190.164 48.9979C189.346 52.3646 188.935 56.0498 188.935 60.0535C188.935 64.0572 189.391 67.7425 190.301 71.1092C191.21 74.4759 192.53 77.3877 194.258 79.8446C196.079 82.2104 198.217 84.0757 200.674 85.4407C203.221 86.8056 206.088 87.488 209.273 87.488C214.277 87.488 218.236 86.032 221.147 83.1202C224.059 80.2086 225.743 76.5688 226.198 72.2011H254.996C254.542 77.6607 253.177 82.7108 250.902 87.3514C248.627 91.9011 245.761 95.8593 242.303 99.226C238.117 103.321 233.34 106.278 227.972 108.098C222.695 109.918 216.506 110.828 209.41 110.828Z" fill="#2FD05B"/>
<path d="M286.492 46.814H286.901C289.54 43.8113 292.498 41.4 295.774 39.5801C299.049 37.6692 303.144 36.7138 308.057 36.7138C316.156 36.7138 322.252 39.1706 326.347 44.0843C330.442 48.9979 332.489 55.4584 332.489 63.4658V108.507H306.693V69.7444C306.693 66.1046 305.919 63.1928 304.372 61.009C302.825 58.8252 300.369 57.7332 297.001 57.7332C293.725 57.7332 291.132 59.0071 289.222 61.555C287.401 64.0117 286.492 67.151 286.492 70.9728V108.507H260.695V10.9172H286.492V46.814Z" fill="#2FD05B"/>
<path d="M365.771 49.4074H366.18C369.001 45.0398 372.095 41.9459 375.462 40.1261C378.919 38.3062 382.878 37.3962 387.336 37.3962C389.248 37.3962 390.658 37.6238 391.567 38.0787V60.0536H391.021C383.378 58.7796 377.464 59.8262 373.278 63.1929C369.092 66.4686 367 72.0647 367 79.9811V108.508H341.203V38.8977H365.771V49.4074Z" fill="#2FD05B"/>
<path d="M432.402 110.691C426.58 110.691 421.302 109.781 416.569 107.962C411.929 106.051 407.926 103.457 404.558 100.182C401.282 96.9058 398.735 93.0387 396.916 88.5799C395.095 84.0303 394.186 79.1166 394.186 73.839C394.186 68.5614 395.095 63.6933 396.916 59.2347C398.735 54.685 401.282 50.7723 404.558 47.4965C407.926 44.1298 411.929 41.5365 416.569 39.7165C421.302 37.8058 426.58 36.8503 432.402 36.8503C438.226 36.8503 443.459 37.8058 448.099 39.7165C452.831 41.5365 456.834 44.1298 460.11 47.4965C463.386 50.7723 465.888 54.685 467.617 59.2347C469.436 63.6933 470.347 68.5614 470.347 73.839C470.347 79.1166 469.436 84.0303 467.617 88.5799C465.888 93.0387 463.386 96.9058 460.11 100.182C456.834 103.457 452.831 106.051 448.099 107.962C443.459 109.781 438.226 110.691 432.402 110.691ZM432.13 93.4936C436.133 93.4936 439.136 91.7193 441.138 88.1705C443.14 84.5308 444.14 79.7536 444.14 73.839C444.14 67.9245 443.14 63.1929 441.138 59.6441C439.136 56.0044 436.133 54.1845 432.13 54.1845C428.126 54.1845 425.168 56.0044 423.258 59.6441C421.346 63.1929 420.391 67.9245 420.391 73.839C420.391 79.7536 421.346 84.5308 423.258 88.1705C425.168 91.7193 428.126 93.4936 432.13 93.4936Z" fill="#2FD05B"/>
<path d="M501.328 48.4519H501.737C504.558 44.6301 507.743 41.7185 511.291 39.7165C514.931 37.7147 519.208 36.7137 524.122 36.7137C532.22 36.7137 538.316 39.1706 542.411 44.0843C546.506 48.9979 548.554 55.4583 548.554 63.4658V108.507H522.757V69.7443C522.757 66.1046 521.983 63.1928 520.436 61.0089C518.89 58.8252 516.433 57.7332 513.066 57.7332C509.79 57.7332 507.197 59.0071 505.286 61.5549C503.466 64.0117 502.556 67.151 502.556 70.9728V108.507H476.76V38.8976H501.328V48.4519Z" fill="#2FD05B"/>
<path d="M557.267 38.8976H583.064V108.507H557.267V38.8976ZM557.267 10.9172H583.064V30.4352H557.267V10.9172Z" fill="#2FD05B"/>
<path d="M627.673 110.691C621.941 110.691 616.709 109.781 611.977 107.962C607.337 106.051 603.332 103.457 599.966 100.182C596.599 96.9058 594.006 93.0387 592.187 88.5799C590.366 84.0303 589.457 79.1166 589.457 73.839C589.457 68.5614 590.366 63.6933 592.187 59.2347C594.006 54.685 596.599 50.7723 599.966 47.4965C603.332 44.1298 607.337 41.5365 611.977 39.7165C616.709 37.8058 621.941 36.8503 627.673 36.8503C632.587 36.8503 637.046 37.5328 641.05 38.8977C645.144 40.2625 648.648 42.1734 651.559 44.6302C654.562 47.0871 656.974 50.0443 658.793 53.502C660.613 56.8689 661.751 60.5995 662.206 64.6942H637.364C636.636 61.5095 635.5 59.0981 633.952 57.4602C632.405 55.7314 630.222 54.867 627.401 54.867C623.396 54.867 620.44 56.5504 618.529 59.9171C616.618 63.2838 615.662 67.9245 615.662 73.839C615.662 79.6626 616.663 84.2578 618.665 87.6245C620.668 90.9003 623.67 92.5381 627.673 92.5381C630.858 92.5381 633.224 91.5372 634.771 89.5354C636.409 87.4426 637.41 84.3942 637.774 80.3905H662.615C662.615 84.6672 661.751 88.6709 660.022 92.4017C658.384 96.0414 656.018 99.2261 652.925 101.956C649.921 104.686 646.236 106.824 641.868 108.371C637.592 109.918 632.861 110.691 627.673 110.691Z" fill="#2FD05B"/>
<path d="M668.566 10.9172H695.044V108.507H668.566V10.9172Z" fill="#2FD05B"/>
<path d="M739.501 110.418C733.769 110.418 728.582 109.508 723.942 107.688C719.3 105.869 715.297 103.321 711.93 100.045C708.564 96.7693 705.971 92.902 704.15 88.4434C702.331 83.8937 701.42 78.9346 701.42 73.5659C701.42 68.2883 702.331 63.4203 704.15 58.9616C705.971 54.4119 708.518 50.4992 711.794 47.2234C715.069 43.8567 718.982 41.2634 723.532 39.4436C728.082 37.5327 733.086 36.5773 738.546 36.5773C744.006 36.5773 748.828 37.4418 753.014 39.1706C757.29 40.8085 761.021 43.0833 764.206 45.9951C768.482 49.9077 771.622 54.8214 773.624 60.7359C775.626 66.6505 776.536 73.0655 776.353 79.981H726.672C727.399 84.0757 728.855 87.2605 731.039 89.5353C733.314 91.8101 736.408 92.9475 740.321 92.9475C744.87 92.9475 748.1 91.2187 750.011 87.761H774.989C774.26 90.9457 772.713 93.994 770.348 96.9057C768.073 99.8175 765.206 102.365 761.749 104.549C758.564 106.642 755.153 108.143 751.512 109.053C747.964 109.963 743.96 110.418 739.501 110.418ZM739.092 53.9115C735.544 53.9115 732.768 55.0489 730.766 57.3237C728.765 59.5076 727.399 62.5103 726.672 66.332H750.694C750.148 62.4194 748.828 59.371 746.735 57.1873C744.733 55.0034 742.186 53.9115 739.092 53.9115Z" fill="#2FD05B"/>
<path d="M34.2857 0L0 34.2857V85.7143H34.2857V120H85.7143L120 85.7143V42.8572H85.7143V85.7143H34.2857V34.2857H77.1428V0H34.2857Z" fill="#2FD05B"/>
</g>
<defs>
<clipPath id="clip0_704_8">
<rect width="776.4" height="120" fill="white"/>
</clipPath>
</defs>
</svg>
