<svg width="258" height="62" viewBox="0 0 258 62" fill="none" xmlns="http://www.w3.org/2000/svg">
<path d="M115.346 25.7321C114.23 25.7339 113.142 25.3823 112.239 24.7278C111.335 24.0733 110.663 23.1494 110.317 22.0887L104.17 23.5863C104.703 25.3888 105.674 27.0315 106.996 28.368C108.318 29.7045 109.95 30.6933 111.746 31.2465C113.543 31.7996 115.449 31.8998 117.293 31.5383C119.138 31.1768 120.865 30.3646 122.319 29.1742L118.721 24.4803C117.777 25.2796 116.583 25.7225 115.346 25.7321Z" fill="#EA8B2B"/>
<path d="M110.06 20.446C110.06 19.5869 110.269 18.7406 110.67 17.9809C111.072 17.2213 111.652 16.5713 112.362 16.0875L108.021 11.4216C106.673 12.4893 105.584 13.8482 104.836 15.3966C104.088 16.945 103.7 18.6426 103.701 20.3622C103.701 21.454 103.859 22.5401 104.171 23.5865L110.317 22.0889C110.146 21.5582 110.059 21.0038 110.06 20.446Z" fill="#0060A1"/>
<path d="M115.346 15.1654C116.2 15.1734 117.038 15.3901 117.788 15.7969L120.688 10.4046C118.715 9.29085 116.454 8.79402 114.196 8.97828C111.938 9.16261 109.787 10.0194 108.021 11.4383L112.362 16.1042C113.239 15.4962 114.279 15.1688 115.346 15.1654Z" fill="#0079B6"/>
<path d="M120.034 18.0321L124.846 14.4C123.82 12.7299 122.385 11.3489 120.677 10.3879L117.788 15.797C118.747 16.2963 119.53 17.0759 120.034 18.0321Z" fill="#008FC9"/>
<path d="M137.765 15.1655C139.014 15.1669 140.223 15.6111 141.177 16.4192C142.13 17.2274 142.767 18.3472 142.973 19.58L149.007 18.183C148.642 16.2865 147.801 14.5141 146.563 13.032C145.325 11.5499 143.731 10.4068 141.929 9.71013C140.128 9.01344 138.179 8.78605 136.266 9.04925C134.353 9.31244 132.538 10.0577 130.992 11.2148L134.758 16.1266C135.638 15.5066 136.688 15.1712 137.765 15.1655Z" fill="#EA8B2B"/>
<path d="M133.227 23.106L128.389 26.7885C129.82 28.8784 131.903 30.4364 134.312 31.2197C134.943 29.2862 135.77 26.8723 136.222 25.4865C134.963 25.0933 133.895 24.2446 133.227 23.106Z" fill="#00A3DB"/>
<path d="M137.765 25.7324C137.234 25.7311 136.706 25.6482 136.2 25.4865C135.747 26.8723 134.92 29.2863 134.289 31.2198C136.059 31.793 137.942 31.923 139.774 31.5986C141.605 31.2742 143.329 30.5051 144.794 29.359L140.978 24.6371C140.057 25.3471 138.927 25.7321 137.765 25.7324Z" fill="#00B0DF"/>
<path d="M143.051 20.4457C143.05 21.2566 142.863 22.0566 142.504 22.7835C142.144 23.5103 141.622 24.1444 140.978 24.6367L144.794 29.3585C146.466 28.0718 147.747 26.3442 148.491 24.37C149.235 22.3957 149.414 20.253 149.007 18.1826L142.973 19.5796C143.021 19.8658 143.048 20.1554 143.051 20.4457Z" fill="#48C0E3"/>
<path d="M76.2617 53.5542V43.5676H77.8508L81.9904 50.1533V43.5676H83.9668V53.5542H82.3777L78.2514 46.9684V53.5542H76.2617Z" fill="black"/>
<path d="M90.4046 53.6216C90.191 53.6216 89.9462 53.5991 89.6702 53.5542C89.3942 53.5182 89.1271 53.4282 88.8689 53.2843C88.6197 53.1403 88.4105 52.9244 88.2413 52.6364C88.0811 52.3396 88.001 51.9347 88.001 51.4219V45.8483C88.001 45.4075 88.0677 45.0386 88.2013 44.7417C88.3348 44.4448 88.5128 44.2109 88.7354 44.0399C88.958 43.869 89.2028 43.7475 89.4699 43.6755C89.7369 43.6035 89.9996 43.5676 90.2577 43.5676C90.9254 43.5676 91.513 43.5766 92.0204 43.5945C92.5367 43.6125 92.9996 43.635 93.4092 43.662C93.8187 43.68 94.1926 43.707 94.5309 43.743V45.4165H90.8453C90.5693 45.4165 90.3556 45.4839 90.2043 45.6189C90.053 45.7538 89.9773 45.9608 89.9773 46.2397V47.6836L93.8899 47.7916V49.3706L89.9773 49.4785V50.8551C89.9773 51.089 90.0129 51.2735 90.0841 51.4084C90.1642 51.5344 90.2666 51.6243 90.3913 51.6783C90.5248 51.7233 90.6628 51.7458 90.8052 51.7458H94.5309V53.4192C94.1391 53.4642 93.703 53.5002 93.2222 53.5272C92.7504 53.5542 92.2696 53.5767 91.78 53.5947C91.2993 53.6126 90.8408 53.6216 90.4046 53.6216Z" fill="black"/>
<path d="M100.441 53.5542V45.3624H97.7305V43.5676H105.142V45.3624H102.418V53.5542H100.441Z" fill="black"/>
<path d="M108.613 53.5542V43.5676H110.59V47.7241H114.315V43.5676H116.305V53.5542H114.315V49.519H110.59V53.5542H108.613Z" fill="black"/>
<path d="M122.81 53.6216C122.596 53.6216 122.351 53.5991 122.075 53.5542C121.799 53.5182 121.532 53.4282 121.274 53.2843C121.025 53.1403 120.816 52.9244 120.647 52.6364C120.486 52.3396 120.406 51.9347 120.406 51.4219V45.8483C120.406 45.4075 120.473 45.0386 120.607 44.7417C120.74 44.4448 120.918 44.2109 121.141 44.0399C121.363 43.869 121.608 43.7475 121.875 43.6755C122.142 43.6035 122.405 43.5676 122.663 43.5676C123.331 43.5676 123.918 43.5766 124.426 43.5945C124.942 43.6125 125.405 43.635 125.814 43.662C126.224 43.68 126.598 43.707 126.936 43.743V45.4165H123.251C122.975 45.4165 122.761 45.4839 122.61 45.6189C122.458 45.7538 122.383 45.9608 122.383 46.2397V47.6836L126.295 47.7916V49.3706L122.383 49.4785V50.8551C122.383 51.089 122.418 51.2735 122.489 51.4084C122.569 51.5344 122.672 51.6243 122.797 51.6783C122.93 51.7233 123.068 51.7458 123.21 51.7458H126.936V53.4192C126.544 53.4642 126.108 53.5002 125.628 53.5272C125.156 53.5542 124.675 53.5767 124.185 53.5947C123.705 53.6126 123.246 53.6216 122.81 53.6216Z" fill="black"/>
<path d="M130.777 53.5542V43.5676H134.864C135.255 43.5676 135.621 43.6171 135.959 43.716C136.297 43.806 136.595 43.9679 136.853 44.2019C137.111 44.4358 137.312 44.7596 137.454 45.1735C137.606 45.5874 137.681 46.1182 137.681 46.766C137.681 47.2248 137.637 47.6162 137.548 47.9401C137.459 48.264 137.339 48.5294 137.187 48.7363C137.045 48.9432 136.88 49.1096 136.693 49.2356C136.506 49.3616 136.315 49.4651 136.119 49.546L137.962 53.5542H135.945L134.356 49.8564C134.249 49.8564 134.125 49.8564 133.982 49.8564C133.849 49.8474 133.711 49.8429 133.568 49.8429C133.426 49.8429 133.284 49.8429 133.141 49.8429C132.999 49.8429 132.87 49.8384 132.754 49.8294V53.5542H130.777ZM132.754 48.2505H134.516C134.695 48.2505 134.855 48.228 134.997 48.183C135.14 48.138 135.264 48.0615 135.371 47.9535C135.478 47.8366 135.558 47.6836 135.612 47.4947C135.674 47.3058 135.705 47.0629 135.705 46.766C135.705 46.487 135.674 46.2576 135.612 46.0777C135.558 45.8888 135.478 45.7448 135.371 45.6459C135.264 45.5379 135.14 45.4659 134.997 45.4299C134.855 45.3849 134.695 45.3624 134.516 45.3624H132.754V48.2505Z" fill="black"/>
<path d="M141.286 53.5542L142.435 43.5676H144.331L146.601 51.2194L148.857 43.5676H150.74L151.902 53.5542H149.993L149.138 46.1992L149.445 46.2261L147.509 53.5542H145.653L143.69 46.2261L144.024 46.2127L143.196 53.5542H141.286Z" fill="black"/>
<path d="M155.745 53.5542V43.5676H157.721V53.5542H155.745Z" fill="black"/>
<path d="M161.906 53.5542V43.5676H163.495L167.635 50.1533V43.5676H169.612V53.5542H168.022L163.896 46.9684V53.5542H161.906Z" fill="black"/>
<path d="M173.646 53.5542V43.5676H177.825C178.493 43.5676 179.049 43.689 179.494 43.9319C179.939 44.1658 180.291 44.5077 180.549 44.9576C180.816 45.3985 181.003 45.9247 181.11 46.5365C181.217 47.1483 181.27 47.8231 181.27 48.5609C181.27 49.6855 181.141 50.6166 180.883 51.3544C180.634 52.0921 180.255 52.6454 179.748 53.0144C179.241 53.3742 178.6 53.5542 177.825 53.5542H173.646ZM175.622 51.7593H177.625C178.034 51.7593 178.359 51.6423 178.6 51.4084C178.84 51.1655 179.014 50.8056 179.12 50.3288C179.236 49.8519 179.294 49.2626 179.294 48.5609C179.294 47.9131 179.258 47.3822 179.187 46.9684C179.116 46.5455 179.009 46.2171 178.867 45.9832C178.733 45.7493 178.56 45.5874 178.346 45.4974C178.141 45.4075 177.901 45.3624 177.625 45.3624H175.622V51.7593Z" fill="black"/>
</svg>
