<svg width="258" height="48" viewBox="0 0 258 48" fill="none" xmlns="http://www.w3.org/2000/svg">
<g opacity="0.8">
<g clip-path="url(#clip0_130_741)">
<path d="M21.1681 32.8523C19.3485 32.8522 17.5755 32.273 16.1023 31.1974C14.6292 30.1218 13.5312 28.6048 12.9653 26.8633L2.92188 29.322C3.78844 32.2912 5.37095 34.9983 7.52838 37.2022C9.68582 39.4061 12.3512 41.0382 15.2868 41.9532C18.2226 42.8681 21.3375 43.0375 24.3539 42.4462C27.3705 41.8548 30.1947 40.5211 32.5753 38.564L26.6918 30.8376C25.1421 32.1406 23.187 32.8537 21.1681 32.8523Z" fill="#EA9E30"/>
<path d="M12.5348 24.1619C12.5362 22.7498 12.8796 21.3594 13.5352 20.1112C14.1908 18.8631 15.1388 17.7947 16.2971 16.9989L9.20826 9.30884C6.2921 11.6286 4.13423 14.7762 3.0138 18.3445C1.89338 21.9127 1.86194 25.7374 2.92357 29.3238L12.9653 26.8633C12.6813 25.9913 12.536 25.0796 12.5348 24.1619Z" fill="#007EBE"/>
<path d="M21.1682 15.4713C22.5603 15.4746 23.9305 15.8205 25.1594 16.4787L29.8962 7.60435C26.6719 5.77971 22.9797 4.96708 19.2934 5.27079C15.6072 5.5745 12.0953 6.98067 9.20837 9.30883L16.3023 16.9885C17.7353 15.9963 19.4344 15.4671 21.1734 15.4713" fill="#008ECE"/>
<path d="M28.8371 20.1772L36.7128 14.2125C35.0368 11.4642 32.6932 9.19114 29.903 7.60785L25.1593 16.4787C26.731 17.3052 28.0142 18.5957 28.8371 20.1772Z" fill="#009CDD"/>
<path d="M57.7932 15.4713C59.8347 15.4718 61.8098 16.2017 63.367 17.5311C64.9243 18.8606 65.9627 20.7032 66.2973 22.7313L76.1514 20.4304C75.5581 17.3045 74.1841 14.3823 72.159 11.9392C70.1338 9.49615 67.5242 7.61264 64.5762 6.46627C61.6282 5.31991 58.4388 4.94845 55.3088 5.38692C52.1787 5.82538 49.2111 7.05933 46.6857 8.97242L52.8361 17.0526C54.2867 16.0226 56.0183 15.4702 57.7932 15.4713Z" fill="#EA9E30"/>
<path d="M50.3428 28.5348L42.4396 34.5915C44.7756 38.0281 48.1758 40.589 52.1094 41.8742C53.1425 38.6923 54.489 34.725 55.2328 32.438C53.1737 31.7938 51.4275 30.3988 50.336 28.5262" fill="#00A5E5"/>
<path d="M57.7933 32.8524C56.9274 32.8495 56.0669 32.7138 55.2416 32.4502C54.496 34.7355 53.1495 38.6923 52.1165 41.8828C55.0061 42.8252 58.0814 43.0386 61.0722 42.5044C64.0629 41.9702 66.8777 40.7047 69.2693 38.819L63.0397 31.0439C61.5375 32.2133 59.692 32.847 57.7933 32.8455" fill="#00ACEB"/>
<path d="M66.4265 24.1619C66.428 25.4957 66.123 26.8118 65.5354 28.0071C64.9479 29.2025 64.0937 30.2448 63.0397 31.0526L69.271 38.8189C71.5196 37.0683 73.3405 34.8225 74.5941 32.2537C75.8476 29.6848 76.5004 26.8612 76.5027 23.9989C76.504 22.802 76.3887 21.6079 76.1583 20.4338L66.3042 22.7313C66.3867 23.2038 66.4299 23.6822 66.4335 24.1619" fill="#21BCEC"/>
<path d="M93.0151 31.2397V16.0989H95.4257L101.724 26.0848V16.0989H104.732V31.2397H102.322L96.0421 21.2558V31.2397H93.0151Z" fill="black"/>
<path d="M114.938 31.3421C114.563 31.3387 114.19 31.308 113.82 31.2503C113.396 31.1872 112.987 31.0448 112.615 30.8306C112.212 30.5953 111.882 30.2519 111.661 29.8388C111.409 29.3948 111.284 28.7846 111.284 28.0077V19.5564C111.266 18.9821 111.37 18.4104 111.589 17.8797C111.767 17.4622 112.046 17.0962 112.401 16.8151C112.734 16.5595 113.114 16.3722 113.519 16.2637C113.911 16.1557 114.317 16.1003 114.724 16.0989C115.74 16.0989 116.637 16.1128 117.415 16.1405C118.193 16.1683 118.894 16.1989 119.518 16.2325C120.141 16.2671 120.709 16.3105 121.226 16.366V18.9062H115.618C115.266 18.8837 114.918 18.993 114.641 19.2131C114.411 19.4177 114.297 19.7333 114.297 20.1546V22.3394L120.249 22.5128V24.9057L114.297 25.0791V27.1598C114.281 27.4465 114.341 27.7322 114.469 27.9886C114.572 28.1759 114.737 28.3208 114.936 28.3979C115.134 28.4731 115.344 28.5112 115.556 28.5106H121.226V31.0439C120.628 31.1132 119.967 31.171 119.244 31.2172C118.521 31.2634 117.789 31.2976 117.05 31.3195C116.306 31.3335 115.602 31.341 114.938 31.3421Z" fill="black"/>
<path d="M130.624 31.2397V18.8212H126.491V16.0989H137.768V18.8212H133.63V31.2397H130.624Z" fill="black"/>
<path d="M143.463 31.2397V16.0989H146.471V22.4018H152.139V16.0989H155.167V31.2397H152.139V25.1224H146.471V31.2397H143.463Z" fill="black"/>
<path d="M165.468 31.3421C165.093 31.3388 164.721 31.3081 164.351 31.2503C163.927 31.1865 163.518 31.0443 163.145 30.8306C162.743 30.5953 162.412 30.2519 162.192 29.8388C161.941 29.3948 161.815 28.7846 161.817 28.0077V19.5564C161.795 18.9831 161.894 18.4117 162.107 17.8797C162.287 17.462 162.566 17.0961 162.921 16.8151C163.254 16.5592 163.634 16.3719 164.04 16.2637C164.432 16.1556 164.838 16.1002 165.244 16.0989C166.26 16.0989 167.157 16.1128 167.936 16.1405C168.714 16.1683 169.415 16.1989 170.04 16.2325C170.662 16.2671 171.232 16.3105 171.746 16.366V18.9062H166.138C165.786 18.8835 165.439 18.9929 165.163 19.2131C164.934 19.4177 164.819 19.7316 164.819 20.1546V22.3394L170.772 22.5128V24.9057L164.819 25.0791V27.1598C164.803 27.4465 164.863 27.7322 164.991 27.9886C165.095 28.1764 165.261 28.3215 165.46 28.3979C165.657 28.4731 165.867 28.5112 166.079 28.5106H171.75V31.0439C171.152 31.1132 170.491 31.171 169.767 31.2172C169.044 31.2634 168.313 31.2976 167.574 31.3195C166.834 31.3335 166.132 31.341 165.468 31.3421Z" fill="black"/>
<path d="M178.003 31.2399V16.099H184.22C184.783 16.0943 185.342 16.1666 185.886 16.314C186.391 16.4522 186.859 16.7082 187.248 17.0613C187.673 17.4668 187.991 17.9728 188.172 18.5334C188.419 19.3137 188.532 20.1303 188.508 20.9488C188.519 21.5482 188.451 22.1465 188.305 22.7279C188.198 23.1611 188.015 23.572 187.766 23.9416C187.559 24.2384 187.301 24.4946 187.003 24.6977C186.728 24.8836 186.436 25.0416 186.13 25.1693L188.933 31.2381H185.868L183.458 25.6322C183.297 25.6322 183.111 25.6288 182.9 25.6218C182.69 25.6149 182.476 25.6114 182.259 25.6114H181.611C181.393 25.6114 181.197 25.6114 181.019 25.5905V31.2381L178.003 31.2399ZM181.009 23.1995H183.692C183.94 23.2025 184.186 23.168 184.424 23.0972C184.641 23.0295 184.837 22.9057 184.992 22.7383C185.169 22.5429 185.298 22.3082 185.368 22.0534C185.465 21.6938 185.511 21.3216 185.5 20.9488C185.51 20.5927 185.465 20.2371 185.368 19.8946C185.299 19.6481 185.17 19.4231 184.992 19.2409C184.833 19.0849 184.638 18.9721 184.424 18.9132C184.186 18.8486 183.939 18.8177 183.692 18.8212H181.009V23.1995Z" fill="black"/>
<path d="M194.4 31.2397L196.146 16.0989H199.033L202.486 27.7008L205.919 16.0989H208.785L210.553 31.2397H207.646L206.346 20.0888L206.812 20.1303L203.867 31.2397H201.043L198.057 20.1303L198.574 20.1095L197.314 31.2397H194.4Z" fill="black"/>
<path d="M216.81 31.2397V16.0989H219.816V31.2397H216.81Z" fill="black"/>
<path d="M226.583 31.2397V16.0989H228.993L235.292 26.0848V16.0989H238.298V31.2397H235.887L229.604 21.2558V31.2397H226.583Z" fill="black"/>
<path d="M244.848 31.2397V16.0989H251.207C252.222 16.0989 253.07 16.2798 253.746 16.6417C254.42 16.9992 254.979 17.5399 255.361 18.2022C255.786 18.9452 256.071 19.7596 256.205 20.6054C256.375 21.6194 256.457 22.6463 256.449 23.6746C256.449 25.3808 256.257 26.7927 255.869 27.9106C255.483 29.0284 254.904 29.8636 254.133 30.4162C253.361 30.9687 252.386 31.2449 251.205 31.2449L244.848 31.2397ZM247.855 28.5192H250.903C251.172 28.5335 251.443 28.4929 251.698 28.3996C251.953 28.3064 252.187 28.1625 252.385 27.9766C252.752 27.6158 253.02 27.0737 253.189 26.35C253.374 25.4689 253.459 24.5697 253.442 23.6694C253.455 22.8571 253.4 22.0451 253.28 21.2418C253.209 20.7224 253.047 20.2196 252.801 19.7575C252.624 19.4325 252.345 19.1745 252.01 19.0224C251.658 18.8794 251.281 18.8097 250.903 18.8178H247.855V28.5192Z" fill="black"/>
</g>
</g>
<defs>
<clipPath id="clip0_130_741">
<rect width="254.6" height="38" fill="white" transform="translate(2 5)"/>
</clipPath>
</defs>
</svg>
