<svg width="258" height="48" viewBox="0 0 258 48" fill="none" xmlns="http://www.w3.org/2000/svg">
<path d="M174.411 18.0356C174.411 16.9938 175.163 15.7206 176.031 15.1997L181.471 12.0167C182.397 11.4958 183.092 11.9009 183.092 12.9427V19.5982C183.092 20.6399 182.339 21.9131 181.471 22.434L176.031 25.6171C175.105 26.1379 174.411 25.7328 174.411 24.6911V18.0356Z" fill="#00DC7D"/>
<path d="M162.721 10.9818C162.721 9.94002 163.473 8.66679 164.341 8.14593L172.791 3.22664C173.717 2.70578 174.411 3.1109 174.411 4.15263L174.354 14.2227C174.354 15.2644 173.601 16.5377 172.733 17.0585L164.284 21.9778C163.358 22.4987 162.663 22.0935 162.663 21.0518L162.721 10.9818Z" fill="#410096"/>
<path d="M84.5909 27.4069C85.6327 27.9857 86.4429 28.7959 87.0216 29.7797C87.6004 30.8215 87.8897 31.979 87.8897 33.3679C87.8897 34.7569 87.6004 35.9144 87.0216 36.9561C86.4429 37.9978 85.6327 38.8081 84.5909 39.3868C83.5492 39.9656 82.3917 40.2549 81.1185 40.2549C80.1346 40.2549 79.2665 40.0813 78.4563 39.6762C77.6461 39.2711 76.9516 38.7502 76.4307 38.0557V45.0006H74V26.7124H76.315V28.8538C76.8358 28.1014 77.5303 27.5805 78.3405 27.1754C79.1508 26.7703 80.0768 26.5967 81.0606 26.5967C82.3917 26.5967 83.5492 26.8861 84.5909 27.4069ZM83.202 37.5349C83.8964 37.1297 84.4173 36.6089 84.8224 35.8565C85.2275 35.162 85.4012 34.2939 85.4012 33.3679C85.4012 32.4419 85.2275 31.6317 84.8224 30.8794C84.4173 30.1849 83.8964 29.6061 83.202 29.201C82.5075 28.7959 81.7551 28.6223 80.887 28.6223C80.0189 28.6223 79.2665 28.7959 78.6299 29.201C77.9354 29.6061 77.4146 30.127 77.0094 30.8794C76.6043 31.5738 76.4307 32.3841 76.4307 33.3101C76.4307 34.236 76.6043 35.0463 77.0094 35.7986C77.3567 36.551 77.8776 37.1297 78.572 37.5349C79.2665 37.94 80.0189 38.1136 80.887 38.1136C81.7551 38.1136 82.5075 37.94 83.202 37.5349Z" fill="#1E1919" stroke="#1E1919" stroke-width="0.2" stroke-miterlimit="10"/>
<path d="M94.8344 27.1754C95.6446 26.7703 96.6864 26.5967 97.8438 26.5967V28.9695C97.7281 28.9695 97.4966 28.9695 97.2651 28.9695C95.934 28.9695 94.8923 29.3746 94.1978 30.127C93.4454 30.9372 93.0982 32.0368 93.0982 33.4837V40.1392H90.6675V26.7124H92.9824V28.9695C93.3876 28.1593 94.0242 27.5805 94.8344 27.1754Z" fill="#1E1919" stroke="#1E1919" stroke-width="0.2" stroke-miterlimit="10"/>
<path d="M100.854 23.6515C100.564 23.3621 100.391 22.957 100.391 22.5519C100.391 22.0889 100.564 21.7416 100.854 21.4522C101.143 21.1629 101.548 20.9893 102.011 20.9893C102.474 20.9893 102.879 21.1629 103.169 21.4522C103.458 21.7416 103.632 22.0889 103.632 22.5519C103.632 23.0148 103.458 23.3621 103.169 23.7093C102.879 23.9987 102.474 24.1723 102.011 24.1723C101.548 24.1144 101.143 23.9987 100.854 23.6515ZM100.796 26.7188H103.226V40.0877H100.796V26.7188Z" fill="#1E1919" stroke="#1E1919" stroke-width="0.2" stroke-miterlimit="10"/>
<path d="M128.228 28.0435C129.212 29.0274 129.732 30.4742 129.732 32.3841V40.0813H127.302V32.6734C127.302 31.4002 127.012 30.4164 126.434 29.7219C125.855 29.0853 124.987 28.738 123.887 28.738C122.672 28.738 121.688 29.1431 120.936 29.8955C120.183 30.6479 119.836 31.7475 119.836 33.1943V40.0813H117.405V32.6734C117.405 31.4002 117.116 30.4164 116.537 29.7219C115.958 29.0853 115.09 28.738 113.991 28.738C112.775 28.738 111.791 29.1431 111.039 29.8955C110.287 30.6479 109.939 31.7475 109.939 33.1943V40.0813H107.509V26.7124H109.824V28.6801C110.287 27.9857 110.923 27.4648 111.734 27.1175C112.544 26.7703 113.412 26.5967 114.454 26.5967C115.495 26.5967 116.421 26.8282 117.232 27.2333C118.042 27.6384 118.678 28.275 119.084 29.0853C119.604 28.3329 120.299 27.6963 121.167 27.2912C122.093 26.8282 123.077 26.6546 124.234 26.6546C125.913 26.5967 127.244 27.0597 128.228 28.0435Z" fill="#1E1919" stroke="#1E1919" stroke-width="0.2" stroke-miterlimit="10"/>
<path d="M145.937 34.1782H135.057C135.231 35.3356 135.751 36.3195 136.62 37.014C137.488 37.7085 138.587 38.1136 139.918 38.1136C141.539 38.1136 142.812 37.5927 143.796 36.4931L145.127 38.0557C144.548 38.7502 143.796 39.3289 142.87 39.6762C141.944 40.0234 140.96 40.2549 139.86 40.2549C138.471 40.2549 137.198 39.9656 136.099 39.3868C134.999 38.8081 134.131 37.9978 133.552 36.9561C132.973 35.9144 132.684 34.7569 132.684 33.4258C132.684 32.1526 132.973 30.9372 133.552 29.8955C134.131 28.8538 134.941 28.0435 135.925 27.4648C136.967 26.886 138.066 26.5967 139.397 26.5967C140.671 26.5967 141.828 26.886 142.812 27.4648C143.796 28.0435 144.606 28.8538 145.185 29.8955C145.764 30.9372 146.053 32.1526 146.053 33.4837C145.995 33.6573 145.995 33.8888 145.937 34.1782ZM136.446 29.664C135.636 30.3585 135.231 31.2845 135.057 32.4419H143.622C143.507 31.3423 143.044 30.4164 142.233 29.664C141.423 28.9695 140.497 28.5644 139.34 28.5644C138.182 28.6223 137.256 28.9695 136.446 29.664Z" fill="#1E1919" stroke="#1E1919" stroke-width="0.2" stroke-miterlimit="10"/>
<path d="M157.685 40.0818L153.808 34.931L149.872 40.0818H147.152L152.419 33.2526L147.442 26.7129H150.162L153.866 31.5164L157.512 26.7129H160.174L155.139 33.2526L160.463 40.0818H157.685Z" fill="#1E1919" stroke="#1E1919" stroke-width="0.2" stroke-miterlimit="10"/>
</svg>
