<svg width="300" height="56" viewBox="0 0 300 56" fill="none" xmlns="http://www.w3.org/2000/svg">
<g clip-path="url(#clip0_2_60560)">
<path d="M149.334 18.0528L144.275 37.9473H139.478L136.071 23.2H135.73L132.324 37.9473H127.528L122.469 18.0508H126.69L130.097 32.7725H130.464L133.399 18.0508H138.405L141.314 32.7725H141.682L145.115 18.0508L149.334 18.0528ZM151.955 27.2535H149.727V24.0783H155.493V37.9473H151.955V27.2535ZM151.092 19.8921C151.086 19.4488 151.211 19.0135 151.45 18.64C151.69 18.2683 152.032 17.9772 152.433 17.8036C152.834 17.63 153.279 17.582 153.708 17.6657C154.136 17.7495 154.531 17.9599 154.841 18.2724C155.152 18.5849 155.364 18.9842 155.451 19.4193C155.538 19.8543 155.496 20.3068 155.329 20.7173C155.163 21.1279 154.882 21.4802 154.518 21.7273C154.157 21.974 153.73 22.1061 153.293 22.1062C152.712 22.1021 152.157 21.8682 151.749 21.4557C151.337 21.039 151.101 20.4792 151.092 19.8931V19.8921ZM158.222 34.6669V18.0528H161.759V34.1348C161.747 34.2215 161.755 34.3099 161.782 34.3931C161.81 34.4763 161.855 34.5521 161.917 34.6148C161.977 34.6763 162.052 34.7228 162.134 34.7504C162.216 34.7781 162.303 34.7862 162.388 34.7742H163.988V37.9483H161.419C159.244 37.9483 158.222 36.9076 158.222 34.67M178.666 18.0528V37.9473H175.128V36.1876H174.892C174.484 36.8718 173.9 37.4343 173.202 37.8165C172.508 38.1957 171.724 38.3793 170.934 38.3476C167.526 38.3476 165.115 35.4145 165.115 31.0148C165.09 26.6131 167.501 23.68 170.934 23.68C171.701 23.6433 172.463 23.8148 173.144 24.1753C173.826 24.5359 174.402 25.0731 174.813 25.7328H175.128V18.0528H178.666ZM175.101 31.0148C175.101 28.6414 173.843 27.0676 171.904 27.0676C170.016 27.0676 168.733 28.6414 168.733 31.0148C168.733 33.3893 170.016 34.9621 171.904 34.9621C173.843 34.9621 175.101 33.3893 175.101 31.0148ZM181.393 34.6669V18.0528H184.931V34.1348C184.92 34.2214 184.928 34.3094 184.956 34.3923C184.983 34.4752 185.029 34.5509 185.089 34.6138C185.15 34.6753 185.224 34.7218 185.306 34.7496C185.388 34.7774 185.475 34.7858 185.56 34.7742H187.159V37.9483H184.591C182.415 37.9483 181.393 36.9076 181.393 34.67M200.632 29.3073V37.9473H197.277V36.0007H197.015C196.575 36.7575 195.938 37.3764 195.175 37.79C194.413 38.2036 193.554 38.3966 192.691 38.3476C190.149 38.3476 188.628 37.0138 188.628 34.5873C188.628 31.4407 191.197 29.8935 197.093 29.8128V29.1735C197.093 27.6262 196.23 26.7469 194.761 26.7469C193.477 26.7469 192.559 27.4138 192.455 28.6669H188.891C189.336 25.3876 191.72 23.68 195.023 23.68C198.641 23.68 200.632 25.7328 200.632 29.3073ZM197.093 31.8942V31.7338C193.583 31.7869 192.01 32.5069 192.01 33.9745C192.01 34.9611 192.717 35.4962 193.974 35.4962C195.94 35.4962 197.093 34.1634 197.093 31.8962M215.755 28.6669V37.9483H212.191V30.16C212.191 28.3993 211.195 27.2535 209.649 27.2535C208.023 27.2535 206.949 28.5862 206.949 30.5593V37.9483H203.411V24.0783H206.739V26.0514H207.027C207.413 25.3323 207.986 24.7307 208.685 24.3102C209.379 23.893 210.175 23.6743 210.985 23.678C213.816 23.678 215.755 25.6521 215.755 28.6659M231.404 18.0528V37.9473H227.866V36.1876H227.631C227.223 36.8718 226.639 37.4343 225.94 37.8165C225.247 38.1957 224.463 38.3793 223.673 38.3476C220.266 38.3476 217.854 35.4145 217.854 31.0148C217.828 26.6131 220.24 23.68 223.673 23.68C224.441 23.6442 225.205 23.8153 225.884 24.1753C226.564 24.5359 227.14 25.0731 227.552 25.7328H227.866V18.0528H231.404ZM227.84 31.0148C227.84 28.6414 226.582 27.0676 224.642 27.0676C222.755 27.0676 221.471 28.6414 221.471 31.0148C221.471 33.3893 222.755 34.9621 224.642 34.9621C226.582 34.9621 227.84 33.3893 227.84 31.0148Z" fill="black"/>
<path d="M92.8814 27.7344C92.777 27.7343 92.6735 27.7134 92.5771 27.6731C92.4807 27.6328 92.3933 27.5738 92.3197 27.4996L88.4287 23.5339L84.5335 27.4965C84.4601 27.5711 84.3727 27.6305 84.2764 27.6714C84.18 27.7122 84.0765 27.7336 83.9718 27.7344C83.8668 27.7348 83.7627 27.714 83.6659 27.6733C83.569 27.6326 83.4814 27.5728 83.4081 27.4975L80.3105 24.3438V27.7855L83.9718 31.5101L87.8649 27.5476C87.9385 27.4729 88.0261 27.4136 88.1227 27.373C88.2192 27.3323 88.3229 27.3111 88.4277 27.3106C88.5326 27.3106 88.6365 27.3317 88.7331 27.3726C88.8298 27.4134 88.9173 27.4733 88.9904 27.5486L92.8845 31.5101L96.5407 27.7855V24.3438L93.4442 27.4975C93.3704 27.572 93.2826 27.631 93.1858 27.6714C93.089 27.7117 92.9852 27.7324 92.8804 27.7324" fill="#00E29C"/>
<path d="M88.4276 4L68 16V40L88.4276 52L108.855 40V16L88.4276 4ZM102.358 32.0831L101.232 33.2269L98.1338 30.0752V38.2618H96.5406V30.0752L93.4431 33.2269C93.3698 33.3017 93.2824 33.3612 93.186 33.402C93.0896 33.4428 92.9861 33.4642 92.8814 33.4649C92.7762 33.465 92.6722 33.444 92.5753 33.4031C92.4785 33.3622 92.3908 33.3023 92.3176 33.2269L89.2221 30.0752V35.9946H87.6289V30.0752L84.5314 33.2269C84.4581 33.3017 84.3708 33.3612 84.2744 33.4021C84.178 33.4429 84.0744 33.4643 83.9697 33.4649C83.8646 33.465 83.7605 33.4441 83.6636 33.4032C83.5668 33.3623 83.4791 33.3024 83.406 33.2269L80.3084 30.0752V38.2618H78.7163V30.0752L75.6187 33.2269L74.4933 32.0831L78.7163 27.7855V24.3438L75.6187 27.4975L74.4933 26.3517L78.9491 21.8172C79.1002 21.6715 79.3019 21.5902 79.5118 21.5902C79.7217 21.5902 79.9234 21.6715 80.0746 21.8172L83.9697 25.7818L87.63 22.0572V18.6134L84.5314 21.7661L83.406 20.6203L87.8628 16.0858C87.9364 16.0112 88.024 15.9519 88.1206 15.9113C88.2171 15.8706 88.3208 15.8494 88.4255 15.8489C88.5304 15.8487 88.6342 15.8696 88.7309 15.9103C88.8276 15.951 88.9151 16.0107 88.9883 16.0858L93.4451 20.6203L92.3197 21.7661L89.2221 18.6134V22.0541L92.8814 25.7818L96.7765 21.8192C96.9249 21.6689 97.127 21.5837 97.3382 21.5823C97.4433 21.5822 97.5474 21.6032 97.6442 21.6441C97.7411 21.685 97.8287 21.7449 97.902 21.8203L102.358 26.3547L101.232 27.5006L98.1338 24.3469V27.7886L102.358 32.0831Z" fill="#00E29C"/>
</g>
<defs>
<clipPath id="clip0_2_60560">
<rect width="163.404" height="48" fill="white" transform="translate(68 4)"/>
</clipPath>
</defs>
</svg>
